<svg width="125" height="120" viewBox="0 0 125 120" fill="none" xmlns="http://www.w3.org/2000/svg">
<circle cx="61.4225" cy="60.4225" r="54.4225" fill="#DB4437"/>
<path d="M36.4648 72C39.7786 72 42.4648 69.7614 42.4648 67C42.4648 64.2386 39.7786 62 36.4648 62C33.1511 62 30.4648 64.2386 30.4648 67C30.4648 69.7614 33.1511 72 36.4648 72Z" fill="#333333"/>
<path d="M86.4648 72C89.7785 72 92.4648 69.7614 92.4648 67C92.4648 64.2386 89.7785 62 86.4648 62C83.1511 62 80.4648 64.2386 80.4648 67C80.4648 69.7614 83.1511 72 86.4648 72Z" fill="#333333"/>
<path d="M102.465 56C102.465 56 93.3663 63 70.4954 63M20.4648 56C20.4648 56 29.5634 63 52.4343 63L20.4648 56Z" stroke="#333333" stroke-width="3" stroke-miterlimit="10" stroke-linecap="round" stroke-linejoin="round"/>
<path d="M79.4648 88.3463C79.4648 90.9019 71.4086 91 61.4648 91C51.5211 91 43.4648 90.8958 43.4648 88.3463C43.4648 86.0909 51.7627 85 61.6989 85C71.6351 85 79.4648 86.0848 79.4648 88.3463V88.3463Z" fill="#333333"/>
</svg>
