<svg width="125" height="120" viewBox="0 0 125 120" fill="none" xmlns="http://www.w3.org/2000/svg">
<circle cx="62.4225" cy="60.4225" r="54.4225" fill="#F4B400"/>
<path d="M61 78C43.9225 78 30 66.8079 30 53.0597C30 51.9182 30.9265 51 32.0784 51C33.2302 51 34.1567 51.9182 34.1567 53.0597C34.1567 64.5496 46.2011 73.8805 61 73.8805C75.7989 73.8805 87.8433 64.5248 87.8433 53.0597C87.8433 51.9182 88.7698 51 89.9216 51C91.0735 51 92 51.9182 92 53.0597C92 66.8079 78.0775 78 61 78V78Z" fill="#645033"/>
<path d="M49 41C52.3137 41 55 38.0898 55 34.5C55 30.9101 52.3137 28 49 28C45.6863 28 43 30.9101 43 34.5C43 38.0898 45.6863 41 49 41Z" fill="#645033"/>
<path d="M75 41C78.3137 41 81 38.0899 81 34.5C81 30.9102 78.3137 28 75 28C71.6863 28 69 30.9102 69 34.5C69 38.0899 71.6863 41 75 41Z" fill="#645033"/>
</svg>
