<svg width="58" height="82" viewBox="0 0 58 82" fill="none" xmlns="http://www.w3.org/2000/svg">
<g clip-path="url(#clip0_44_1846)">
<path d="M8.57142 61.1777C8.65653 61.3426 8.70419 61.5413 8.83014 61.6625C11.9007 64.615 15.4648 66.7898 19.5396 68.0994C21.2825 68.6582 23.0833 69.0319 24.8603 69.4898V82H33.0507V69.6682C33.5477 69.5571 34.0447 69.4393 34.5417 69.3416C38.4429 68.5741 42.0649 67.1332 45.3363 64.8876C51.9063 60.3764 55.9334 54.2021 57.4449 46.4488C57.7615 44.8228 57.8159 43.1496 57.9963 41.4293H49.8502C49.5711 42.9914 49.4213 44.5333 49.0128 46.0044C47.7567 50.5089 45.224 54.192 41.5441 57.1445C35.2736 62.1775 26.4194 63.0865 19.3286 59.2284C17.5141 58.242 15.921 56.855 14.2257 55.6531C14.0079 55.3972 13.8002 55.1346 13.5721 54.8889C11.0871 52.2158 9.32034 49.1657 8.64972 45.5634C8.391 44.1697 8.24463 42.7557 8.03016 41.2542C5.53151 41.2542 2.98861 41.2441 0.442302 41.2778C0.292519 41.2778 0.0338031 41.6313 0.0235907 41.8299C-0.013855 42.5571 -0.0274717 43.2943 0.0508239 44.0148C0.738463 50.3777 3.27115 55.9191 7.70336 60.5919C7.93485 60.8376 8.27526 60.9858 8.56462 61.1777H8.57142ZM41.333 26.6735C41.333 22.0175 41.3534 17.3615 41.316 12.7089C41.3058 11.6249 41.2037 10.5206 40.9654 9.4635C39.8828 4.64591 35.9987 1.05713 31.0184 0.181816C26.1947 -0.666565 21.2247 1.50152 18.5456 5.61212C17.1193 7.80377 16.5644 10.2176 16.5644 12.7931C16.5644 21.627 16.544 30.4609 16.5712 39.2948C16.5746 40.7425 16.6086 42.2305 16.932 43.6344C18.6307 50.9803 26.433 55.0134 33.5069 52.273C38.2284 50.445 41.2888 45.9944 41.3228 40.8064C41.3568 36.0966 41.3296 31.3834 41.333 26.6735V26.6735Z" fill="#FEFEFE"/>
<path d="M41.3334 26.6735C41.3334 31.3834 41.3572 36.0966 41.3266 40.8064C41.2891 45.9944 38.2322 50.4416 33.5106 52.273C26.4368 55.0101 18.6345 50.9803 16.9358 43.6344C16.6124 42.2339 16.5818 40.7458 16.575 39.2948C16.5477 30.4609 16.5681 21.627 16.5681 12.7931C16.5681 10.2176 17.123 7.80041 18.5494 5.61212C21.2284 1.50152 26.1951 -0.666565 31.0188 0.181816C35.9991 1.05713 39.8832 4.64591 40.9657 9.4635C41.204 10.5206 41.3095 11.6249 41.3164 12.7089C41.3538 17.3649 41.3334 22.0175 41.33 26.6735H41.3334Z" fill="#2087E4"/>
<path d="M14.2293 55.6497C15.9245 56.8516 17.5177 58.2353 19.3321 59.2251C26.4229 63.0865 35.2771 62.1742 41.5476 57.1411C45.2241 54.1886 47.7602 50.5056 49.0163 46.0011C49.4248 44.5299 49.5746 42.9914 49.8537 41.4259H57.9999C57.8195 43.1462 57.765 44.8194 57.4484 46.4455C55.937 54.1987 51.9064 60.3731 45.3398 64.8843C42.0718 67.1298 38.4464 68.5707 34.5453 69.3383C34.0448 69.4359 33.5512 69.5571 33.0542 69.6648C32.21 69.7086 31.3624 69.813 30.5215 69.7827C28.6356 69.7187 26.7497 69.5874 24.8638 69.4831C23.0869 69.0252 21.2861 68.6515 19.5431 68.0926C15.4718 66.783 11.9076 64.6082 8.83367 61.6557C8.70771 61.5345 8.66006 61.3325 8.57495 61.1709C9.60301 60.1744 10.6379 59.1847 11.6625 58.1848C12.5238 57.3431 13.3748 56.4914 14.2327 55.643L14.2293 55.6497Z" fill="#E33B37"/>
<path d="M14.2293 55.6497C13.3714 56.4981 12.5204 57.3498 11.6592 58.1915C10.6345 59.1914 9.59964 60.1845 8.57159 61.1776C8.28223 60.9824 7.94182 60.8376 7.71034 60.5919C3.27813 55.9157 0.748838 50.3743 0.0577944 44.0114C-0.0205012 43.2876 -0.0102887 42.5537 0.0305612 41.8265C0.0407736 41.6279 0.299489 41.2744 0.449272 41.2744C2.99218 41.2407 5.53848 41.2508 8.03713 41.2508C8.24819 42.7523 8.39457 44.1663 8.65669 45.56C9.32731 49.1623 11.0907 52.2124 13.5791 54.8855C13.8072 55.1313 14.0148 55.3939 14.2327 55.6497H14.2293Z" fill="#FABF30"/>
<path d="M24.8606 69.4897C26.7465 69.5941 28.6324 69.722 30.5183 69.7894C31.3591 69.8197 32.2068 69.7153 33.051 69.6715C33.051 73.7586 33.051 77.849 33.051 82.0034H24.8606V69.4931V69.4897Z" fill="#4EAE51"/>
</g>
<defs>
<clipPath id="clip0_44_1846">
<rect width="58" height="82" fill="white"/>
</clipPath>
</defs>
</svg>
