<svg width="125" height="120" viewBox="0 0 125 120" fill="none" xmlns="http://www.w3.org/2000/svg">
<circle cx="61.4225" cy="60.4225" r="54.4225" fill="#4285F4"/>
<path d="M47.1549 41C50.4686 41 53.1549 38.0898 53.1549 34.5C53.1549 30.9101 50.4686 28 47.1549 28C43.8412 28 41.1549 30.9101 41.1549 34.5C41.1549 38.0898 43.8412 41 47.1549 41Z" fill="#645033"/>
<path d="M73.1549 41C76.4686 41 79.1549 38.0899 79.1549 34.5C79.1549 30.9102 76.4686 28 73.1549 28C69.8412 28 67.1549 30.9102 67.1549 34.5C67.1549 38.0899 69.8412 41 73.1549 41Z" fill="#645033"/>
<rect x="32.1549" y="52" width="58" height="5" rx="2.5" fill="#645033"/>
</svg>
