<svg width="125" height="120" viewBox="0 0 125 120" fill="none" xmlns="http://www.w3.org/2000/svg">
<circle cx="61.4225" cy="60.4225" r="54.4225" fill="#34A853"/>
<path d="M60.9992 51.351C78.0763 51.2258 92.0804 62.3156 92.1812 76.0634C92.1896 77.2049 91.2698 78.1298 90.118 78.1383C88.9662 78.1467 88.033 77.2353 88.0246 76.0938C87.9404 64.6043 75.8279 55.3619 61.0294 55.4704C46.2309 55.5789 34.2554 65.0226 34.3395 76.4874C34.3478 77.6289 33.4281 78.5539 32.2763 78.5623C31.1244 78.5708 30.1912 77.6594 30.1829 76.5179C30.0821 62.7701 43.9221 51.4762 60.9992 51.351V51.351Z" fill="#645033"/>
<path d="M43.947 41C47.2607 41 49.947 38.0898 49.947 34.5C49.947 30.9101 47.2607 28 43.947 28C40.6333 28 37.947 30.9101 37.947 34.5C37.947 38.0898 40.6333 41 43.947 41Z" fill="#645033"/>
<path d="M74.947 41C78.2607 41 80.947 38.0899 80.947 34.5C80.947 30.9102 78.2607 28 74.947 28C71.6333 28 68.947 30.9102 68.947 34.5C68.947 38.0899 71.6333 41 74.947 41Z" fill="#645033"/>
</svg>
