<svg width="1020" height="795" viewBox="0 0 1020 795" fill="none" xmlns="http://www.w3.org/2000/svg">
<path d="M71.4366 544.478C55.2392 384.799 303.255 42.73 469.483 212.002C556.982 301.103 769.881 404.726 926.184 457.775C1078.17 509.359 764.17 766.309 528.138 790.251C292.106 814.193 87.6339 704.157 71.4366 544.478Z" fill="#FFF4F2"/>
<path d="M853.132 663.576C844.025 663.576 844.01 649.423 853.132 649.423C862.239 649.423 862.254 663.576 853.132 663.576Z" fill="#FFA574"/>
<path d="M937.173 339.15C928.066 339.15 928.051 324.997 937.173 324.997C946.279 324.997 946.294 339.15 937.173 339.15Z" fill="#FFA574"/>
<path d="M793.549 134.806C784.442 134.806 784.427 120.653 793.549 120.653C802.655 120.653 802.67 134.806 793.549 134.806Z" fill="#FFA574"/>
<path d="M793.549 134.806C784.442 134.806 784.427 120.653 793.549 120.653C802.655 120.653 802.67 134.806 793.549 134.806Z" fill="#FFA574"/>
<path d="M974.847 655.498C965.74 655.498 965.725 641.346 974.847 641.346C983.954 641.346 983.969 655.498 974.847 655.498Z" fill="#FFA574"/>
<path d="M534.909 14.1528C525.803 14.1528 525.787 -5.96401e-05 534.909 -6.04376e-05C544.016 -6.12337e-05 544.031 14.1528 534.909 14.1528Z" fill="#FFA574"/>
<path d="M625.414 557.692C616.307 557.692 616.292 543.54 625.414 543.54C634.521 543.54 634.536 557.692 625.414 557.692Z" fill="#FFA574"/>
<path d="M867.426 282.562C858.32 282.562 858.305 268.409 867.426 268.409C876.533 268.409 876.548 282.562 867.426 282.562Z" fill="#FFA574"/>
<path d="M804.633 732.348C795.526 732.348 795.511 718.195 804.633 718.195C813.74 718.195 813.755 732.348 804.633 732.348Z" fill="#FFA574"/>
<path d="M310.378 669.976C301.272 669.976 301.256 655.824 310.378 655.824C319.485 655.824 319.5 669.976 310.378 669.976Z" fill="#FFA574"/>
<path d="M284.047 116.974C274.94 116.974 274.925 102.821 284.047 102.821C293.154 102.821 293.169 116.974 284.047 116.974Z" fill="#FFA574"/>
<path d="M97.5384 557.692C88.4317 557.692 88.4166 543.54 97.5384 543.54C106.645 543.54 106.66 557.692 97.5384 557.692Z" fill="#FFA574"/>
<path d="M826.68 562.383C825.763 562.352 824.894 561.965 824.256 561.305C823.619 560.645 823.262 559.763 823.262 558.845C823.262 557.927 823.619 557.046 824.256 556.385C824.894 555.725 825.763 555.339 826.68 555.307C827.597 555.339 828.466 555.725 829.104 556.385C829.741 557.046 830.098 557.927 830.098 558.845C830.098 559.763 829.741 560.645 829.104 561.305C828.466 561.965 827.597 562.352 826.68 562.383V562.383Z" fill="#FFA574"/>
<path d="M375.772 45.2389C374.855 45.2071 373.986 44.8204 373.348 44.1604C372.71 43.5003 372.354 42.6184 372.354 41.7007C372.354 40.783 372.71 39.9011 373.348 39.241C373.986 38.5809 374.855 38.1943 375.772 38.1625C376.689 38.1943 377.558 38.5809 378.195 39.241C378.833 39.9011 379.189 40.783 379.189 41.7007C379.189 42.6184 378.833 43.5003 378.195 44.1604C377.558 44.8204 376.689 45.2071 375.772 45.2389V45.2389Z" fill="#FFA574"/>
<path d="M490.264 281.021C489.347 280.989 488.478 280.602 487.84 279.942C487.203 279.282 486.846 278.4 486.846 277.483C486.846 276.565 487.203 275.683 487.84 275.023C488.478 274.363 489.347 273.976 490.264 273.944C491.181 273.976 492.05 274.363 492.688 275.023C493.326 275.683 493.682 276.565 493.682 277.483C493.682 278.4 493.326 279.282 492.688 279.942C492.05 280.602 491.181 280.989 490.264 281.021V281.021Z" fill="#FFA574"/>
<path d="M431.817 577.668C430.9 577.636 430.031 577.25 429.394 576.59C428.756 575.93 428.4 575.048 428.4 574.13C428.4 573.212 428.756 572.33 429.394 571.67C430.031 571.01 430.9 570.624 431.817 570.592C432.735 570.624 433.604 571.01 434.241 571.67C434.879 572.33 435.235 573.212 435.235 574.13C435.235 575.048 434.879 575.93 434.241 576.59C433.604 577.25 432.735 577.636 431.817 577.668V577.668Z" fill="#FFA574"/>
<path d="M564.287 763.636C563.37 763.605 562.501 763.218 561.863 762.558C561.226 761.898 560.869 761.016 560.869 760.098C560.869 759.181 561.226 758.299 561.863 757.639C562.501 756.979 563.37 756.592 564.287 756.56C565.204 756.592 566.073 756.979 566.711 757.639C567.348 758.299 567.705 759.181 567.705 760.098C567.705 761.016 567.348 761.898 566.711 762.558C566.073 763.218 565.204 763.605 564.287 763.636V763.636Z" fill="#FFA574"/>
<path d="M159.232 758.541C158.315 758.509 157.446 758.123 156.808 757.463C156.171 756.803 155.814 755.921 155.814 755.003C155.814 754.085 156.171 753.203 156.808 752.543C157.446 751.883 158.315 751.497 159.232 751.465C160.149 751.497 161.018 751.883 161.656 752.543C162.294 753.203 162.65 754.085 162.65 755.003C162.65 755.921 162.294 756.803 161.656 757.463C161.018 758.123 160.149 758.509 159.232 758.541V758.541Z" fill="#FFA574"/>
<path d="M485.314 419.723C484.397 419.691 483.528 419.304 482.89 418.644C482.253 417.984 481.896 417.102 481.896 416.184C481.896 415.267 482.253 414.385 482.89 413.725C483.528 413.065 484.397 412.678 485.314 412.646C486.231 412.678 487.1 413.065 487.738 413.725C488.375 414.385 488.732 415.267 488.732 416.184C488.732 417.102 488.375 417.984 487.738 418.644C487.1 419.304 486.231 419.691 485.314 419.723V419.723Z" fill="#FFA574"/>
<path d="M690.787 31.1321C689.87 31.1003 689.001 30.7136 688.364 30.0535C687.726 29.3935 687.37 28.5116 687.37 27.5939C687.37 26.6761 687.726 25.7943 688.364 25.1342C689.001 24.4741 689.87 24.0874 690.787 24.0557C691.705 24.0874 692.574 24.4741 693.211 25.1342C693.849 25.7943 694.205 26.6761 694.205 27.5939C694.205 28.5116 693.849 29.3935 693.211 30.0535C692.574 30.7136 691.705 31.1003 690.787 31.1321V31.1321Z" fill="#FFD1CA"/>
<path d="M930.338 499.629C929.421 499.597 928.552 499.21 927.915 498.55C927.277 497.89 926.921 497.008 926.921 496.091C926.921 495.173 927.277 494.291 927.915 493.631C928.552 492.971 929.421 492.584 930.338 492.552C931.256 492.584 932.125 492.971 932.762 493.631C933.4 494.291 933.756 495.173 933.756 496.091C933.756 497.008 933.4 497.89 932.762 498.55C932.125 499.21 931.256 499.597 930.338 499.629V499.629Z" fill="#FFD1CA"/>
<path d="M495.805 111.749C494.888 111.717 494.019 111.33 493.381 110.67C492.744 110.01 492.387 109.128 492.387 108.211C492.387 107.293 492.744 106.411 493.381 105.751C494.019 105.091 494.888 104.704 495.805 104.673C496.722 104.704 497.591 105.091 498.229 105.751C498.866 106.411 499.223 107.293 499.223 108.211C499.223 109.128 498.866 110.01 498.229 110.67C497.591 111.33 496.722 111.717 495.805 111.749Z" fill="#FFD1CA"/>
<path d="M90.7029 142.58C89.7857 142.548 88.9167 142.161 88.2791 141.501C87.6415 140.841 87.2851 139.959 87.2851 139.041C87.2851 138.124 87.6415 137.242 88.2791 136.582C88.9167 135.922 89.7857 135.535 90.7029 135.503C91.6201 135.535 92.489 135.922 93.1266 136.582C93.7642 137.242 94.1206 138.124 94.1206 139.041C94.1206 139.959 93.7642 140.841 93.1266 141.501C92.489 142.161 91.6201 142.548 90.7029 142.58V142.58Z" fill="#FFD1CA"/>
<path d="M672.092 527.604C671.175 527.572 670.306 527.185 669.668 526.525C669.03 525.865 668.674 524.983 668.674 524.066C668.674 523.148 669.03 522.266 669.668 521.606C670.306 520.946 671.175 520.559 672.092 520.527C673.009 520.559 673.878 520.946 674.516 521.606C675.153 522.266 675.51 523.148 675.51 524.066C675.51 524.983 675.153 525.865 674.516 526.525C673.878 527.185 673.009 527.572 672.092 527.604V527.604Z" fill="#FFD1CA"/>
<path d="M292.424 476.235C291.507 476.203 290.638 475.816 290 475.156C289.362 474.496 289.006 473.614 289.006 472.697C289.006 471.779 289.362 470.897 290 470.237C290.638 469.577 291.507 469.19 292.424 469.158C293.341 469.19 294.21 469.577 294.848 470.237C295.485 470.897 295.842 471.779 295.842 472.697C295.842 473.614 295.485 474.496 294.848 475.156C294.21 475.816 293.341 476.203 292.424 476.235V476.235Z" fill="#FFD1CA"/>
<path d="M224.182 34.7557C223.264 34.7239 222.395 34.3372 221.758 33.6771C221.12 33.0171 220.764 32.1352 220.764 31.2175C220.764 30.2997 221.12 29.4179 221.758 28.7578C222.395 28.0977 223.264 27.711 224.182 27.6793C225.099 27.711 225.968 28.0977 226.605 28.7578C227.243 29.4179 227.599 30.2997 227.599 31.2175C227.599 32.1352 227.243 33.0171 226.605 33.6771C225.968 34.3372 225.099 34.7239 224.182 34.7557Z" fill="#FFD1CA"/>
<path d="M95.663 689.083C94.7459 689.051 93.8769 688.664 93.2393 688.004C92.6017 687.344 92.2453 686.462 92.2453 685.544C92.2453 684.627 92.6017 683.745 93.2393 683.085C93.8769 682.425 94.7459 682.038 95.663 682.006C96.5802 682.038 97.4492 682.425 98.0868 683.085C98.7244 683.745 99.0808 684.627 99.0808 685.544C99.0808 686.462 98.7244 687.344 98.0868 688.004C97.4492 688.664 96.5802 689.051 95.663 689.083V689.083Z" fill="#FFD1CA"/>
<path d="M601.727 110.678L601.727 130.281L611.724 134.567C611.724 134.567 608.499 184.156 584.723 171.135C560.946 158.115 554.547 136.266 559.642 134.567L566.767 130.281L567.629 111.629L601.727 110.678Z" fill="#FED4C0"/>
<path d="M334.366 208.011L415.107 220.44C418.761 221.007 422.495 220.742 426.033 219.667C429.57 218.592 432.82 216.734 435.541 214.231C474.425 178.356 500.104 160.419 515.712 151.465C515.725 151.459 515.735 151.447 515.748 151.442L515.762 151.436C529.748 143.418 559.339 133.309 559.339 133.309L559.039 134.818L559.642 134.568C587.382 192.311 611.724 134.568 611.724 134.568C611.724 134.568 641.315 144.677 655.301 152.695L655.315 152.701C655.327 152.706 655.338 152.718 655.35 152.724C670.959 161.678 696.638 179.615 735.522 215.49C738.243 217.993 741.493 219.851 745.03 220.926C748.568 222.001 752.302 222.266 755.956 221.699L836.697 209.27L852.821 250.312L759.64 275.222C752.996 276.998 746.047 277.321 739.267 276.169C732.487 275.016 726.036 272.415 720.352 268.544L660.342 227.668L660.083 226.795C658.849 272.542 655.315 322.517 655.315 322.517L654.183 345.161L517.184 345.161L517.121 343.902L516.88 343.902L515.748 321.258C515.748 321.258 512.213 271.283 510.98 225.536L510.721 226.409L450.712 267.285C445.028 271.157 438.576 273.757 431.796 274.91C425.016 276.062 418.067 275.739 411.423 273.963L318.242 249.054L334.366 208.011Z" fill="#FABB05"/>
<path d="M550.756 67.6313C550.756 39.6484 565.71 16.9639 584.156 16.9639C602.603 16.9639 617.557 39.6484 617.557 67.6312L617.556 67.6525C617.629 67.651 617.696 67.6312 617.769 67.6312C619.232 67.6252 620.682 67.9081 622.035 68.4638C623.388 69.0194 624.618 69.8368 625.655 70.869C626.691 71.9013 627.514 73.128 628.075 74.4789C628.636 75.8299 628.925 77.2783 628.925 78.7411C628.925 80.204 628.636 81.6524 628.075 83.0033C627.514 84.3542 626.691 85.581 625.655 86.6132C624.618 87.6455 623.388 88.4629 622.035 89.0185C620.682 89.5741 619.232 89.857 617.769 89.851C616.598 89.836 615.437 89.6339 614.329 89.2524C608.977 106.405 597.497 118.298 584.156 118.298C570.831 118.298 559.363 106.432 554.003 89.3126C552.953 89.654 551.859 89.8355 550.756 89.851C547.817 89.8389 545.003 88.6631 542.929 86.5809C540.856 84.4987 539.691 81.6797 539.691 78.7411C539.691 75.8025 540.856 72.9836 542.929 70.9014C545.003 68.8192 547.817 67.6434 550.756 67.6313V67.6313Z" fill="#FED4C0"/>
<path d="M613.877 77.538C613.877 77.538 615.859 38.4762 601.989 29.9845C601.989 29.9845 596.894 23.4742 582.458 38.7593C568.022 54.0443 553.991 45.8524 553.991 45.8524C553.991 45.8524 550.473 72.1599 552.737 77.538C552.737 77.538 532.357 42.7221 554.718 24.8895C577.08 7.05694 589.251 13.2842 607.084 24.8895C607.084 24.8895 640.485 28.8523 613.877 77.538Z" fill="#200100"/>
<path d="M586.268 70.2854C586.31 72.0418 586.481 73.7176 586.638 75.3739C586.817 76.9796 586.913 78.5934 586.927 80.209C586.944 81.7696 586.658 83.2254 585.825 83.5744C584.299 83.7905 582.743 83.6001 581.315 83.0227C581.911 83.6862 582.606 84.2531 583.376 84.7031C584.237 85.2575 585.267 85.4892 586.284 85.3573C586.86 85.223 587.393 84.9447 587.833 84.5485C588.272 84.1523 588.605 83.6512 588.798 83.0918C589.119 82.1744 589.283 81.2096 589.284 80.2377C589.263 78.4633 588.977 76.7019 588.436 75.0121C587.945 73.3404 587.215 71.7484 586.268 70.2854V70.2854Z" fill="#200100"/>
<path d="M609.871 62.6588C609.871 62.6588 601.995 54.2278 592.738 61.1589Z" fill="#200100"/>
<path d="M579.63 61.9294C579.63 61.9294 571.414 53.8294 562.449 61.1354Z" fill="#200100"/>
<path d="M599.148 75.6637C597.819 75.6637 596.742 74.0479 596.742 72.0547C596.742 70.0615 597.819 68.4457 599.148 68.4457C600.477 68.4457 601.554 70.0615 601.554 72.0547C601.554 74.0479 600.477 75.6637 599.148 75.6637Z" fill="#200100"/>
<path d="M571.692 74.673C570.363 74.673 569.286 73.0572 569.286 71.064C569.286 69.0709 570.363 67.4551 571.692 67.4551C573.021 67.4551 574.098 69.0709 574.098 71.064C574.098 73.0572 573.021 74.673 571.692 74.673Z" fill="#200100"/>
<path d="M624.764 80.8526C624.833 79.8501 624.586 78.8512 624.058 77.9962C623.52 77.0617 622.696 76.3245 621.707 75.8931C621.186 75.6712 620.624 75.5608 620.057 75.5689C619.491 75.577 618.932 75.7035 618.417 75.9403C617.472 76.349 616.709 77.0898 616.272 78.0226C617.297 77.9155 618.118 77.7128 618.872 77.7231C619.537 77.681 620.202 77.8012 620.81 78.0732C622.241 78.8284 623.569 79.7623 624.764 80.8526V80.8526Z" fill="#200100"/>
<path d="M543.15 80.8527C544.344 79.7625 545.673 78.8286 547.103 78.0735C547.711 77.8015 548.377 77.6813 549.042 77.7234C549.795 77.713 550.616 77.9157 551.641 78.0229C551.205 77.09 550.442 76.3493 549.496 75.9406C548.981 75.7038 548.423 75.5773 547.856 75.5692C547.289 75.5611 546.727 75.6715 546.206 75.8934C545.218 76.3248 544.394 77.062 543.855 77.9965C543.327 78.8514 543.081 79.8503 543.15 80.8527V80.8527Z" fill="#200100"/>
<path d="M600.565 111.742C595.896 114.784 590.519 116.566 584.958 116.917C582.237 117.046 579.514 116.717 576.902 115.942C575.561 115.574 574.245 115.122 572.962 114.587C571.652 114.069 570.43 113.357 569.066 112.814C570.115 113.82 571.232 114.753 572.41 115.605C573.632 116.428 574.935 117.124 576.299 117.681C579.06 118.865 582.053 119.409 585.055 119.272C588.048 119.151 590.983 118.403 593.67 117.078C596.322 115.81 598.673 113.991 600.565 111.742V111.742Z" fill="#200100"/>
<path d="M602.149 89.8675C601.232 89.8357 600.363 89.449 599.725 88.789C599.088 88.1289 598.731 87.247 598.731 86.3293C598.731 85.4116 599.088 84.5297 599.725 83.8696C600.363 83.2095 601.232 82.8229 602.149 82.7911C603.066 82.8229 603.935 83.2095 604.573 83.8696C605.21 84.5297 605.567 85.4116 605.567 86.3293C605.567 87.247 605.21 88.1289 604.573 88.789C603.935 89.449 603.066 89.8357 602.149 89.8675Z" fill="#602922"/>
<path d="M566.767 87.603C565.85 87.5712 564.981 87.1845 564.343 86.5244C563.706 85.8643 563.349 84.9825 563.349 84.0648C563.349 83.147 563.706 82.2652 564.343 81.6051C564.981 80.945 565.85 80.5583 566.767 80.5266C567.684 80.5583 568.553 80.945 569.191 81.6051C569.828 82.2652 570.185 83.147 570.185 84.0648C570.185 84.9825 569.828 85.8643 569.191 86.5244C568.553 87.1845 567.684 87.5712 566.767 87.603Z" fill="#602922"/>
<path d="M594.78 96.9557C594.78 96.9557 583.106 110.472 572.995 93.2335Z" fill="#200100"/>
<path d="M650.218 345.161L650.218 734.647L598.136 734.647L591.342 394.979L577.756 394.979L551.714 734.647L499.632 734.647L522.276 345.161L650.218 345.161Z" fill="#FA81A2"/>
<path d="M540.394 748.234C540.394 748.234 554.547 787.862 542.659 793.523L530.771 793.523C530.771 793.523 525.109 777.672 517.184 793.523L444.721 793.523C444.721 793.523 440.192 781.068 457.742 775.407C475.291 769.746 504.729 748.234 504.729 748.234L540.394 748.234Z" fill="#2C66BF"/>
<path d="M542.656 734.647L540.391 748.234L504.726 748.234L504.726 734.647L542.656 734.647Z" fill="#FED4C0"/>
<path d="M606.897 748.234C606.897 748.234 592.744 787.862 604.632 793.523L616.521 793.523C616.521 793.523 622.182 777.672 630.107 793.523L702.57 793.523C702.57 793.523 707.099 781.068 689.549 775.407C672 769.746 642.562 748.234 642.562 748.234L606.897 748.234Z" fill="#2C66BF"/>
<path d="M604.63 734.647L606.894 748.234L642.56 748.234L642.56 734.647L604.63 734.647Z" fill="#FED4C0"/>
<path d="M573.065 394.009C576.852 394.841 580.723 395.237 584.6 395.188C588.477 395.242 592.348 394.846 596.135 394.009C592.348 393.172 588.477 392.776 584.6 392.83C580.722 392.781 576.852 393.177 573.065 394.009Z" fill="#E06C96"/>
<path d="M651.392 277.482C650.872 281.09 650.069 284.652 648.989 288.134C648.515 289.884 647.862 291.582 647.31 293.303L645.246 298.318C642.321 304.904 638.387 310.994 633.586 316.369C628.838 321.781 623.218 326.359 616.959 329.915C613.851 331.77 610.604 333.38 607.246 334.729C603.922 336.197 600.376 337.074 596.941 338.391C598.728 338.021 600.517 337.627 602.307 337.208L604.997 336.588L606.345 336.279L607.644 335.816C611.15 334.651 614.558 333.209 617.835 331.503C624.492 328.148 630.439 323.54 635.351 317.932C640.315 312.377 644.232 305.969 646.911 299.018C649.651 292.156 651.168 284.867 651.392 277.482V277.482Z" fill="#EDA606"/>
<path d="M635.106 283.801C633.849 287.223 632.323 290.54 630.544 293.721C629.716 295.335 628.725 296.86 627.828 298.428L624.768 302.905C620.538 308.741 615.425 313.881 609.613 318.142C603.845 322.449 597.396 325.761 590.535 327.939C587.11 329.109 583.599 330.009 580.034 330.632C576.479 331.376 572.827 331.498 569.193 332.074C571.018 332.083 572.85 332.068 574.688 332.03L577.448 331.983L578.831 331.96L580.198 331.777C583.87 331.366 587.503 330.664 591.063 329.675C598.271 327.775 605.045 324.503 611.014 320.038C617.024 315.635 622.186 310.179 626.251 303.936C630.356 297.793 633.353 290.978 635.106 283.801V283.801Z" fill="#EDA606"/>
<path d="M534.91 189.322L574.927 189.322L574.927 239.235L534.91 239.235L534.91 189.322Z" fill="#EDA606"/>
<path d="M189.37 110.624L189.37 132.586L180.333 134.567C180.333 134.567 182.598 184.102 206.374 171.081C230.151 158.061 237.511 136.265 232.416 134.567L224.49 132.019L223.468 111.575L189.37 110.624Z" fill="#B86A4B"/>
<path d="M240.342 67.5773C240.342 39.5944 225.388 16.91 206.941 16.91C188.495 16.91 173.54 39.5945 173.54 67.5773L173.541 67.5986C173.469 67.5971 173.401 67.5773 173.328 67.5773C171.865 67.5713 170.416 67.8542 169.062 68.4098C167.709 68.9655 166.479 69.7828 165.443 70.8151C164.406 71.8473 163.584 73.0741 163.022 74.425C162.461 75.7759 162.172 77.2244 162.172 78.6872C162.172 80.15 162.461 81.5985 163.022 82.9494C163.584 84.3003 164.406 85.5271 165.443 86.5593C166.479 87.5916 167.709 88.4089 169.062 88.9646C170.416 89.5202 171.865 89.8031 173.328 89.7971C174.499 89.7821 175.661 89.58 176.768 89.1985C182.12 106.351 193.601 118.244 206.941 118.244C220.266 118.244 231.735 106.378 237.095 89.2586C238.144 89.6001 239.239 89.7816 240.342 89.7971C241.805 89.8031 243.254 89.5202 244.607 88.9646C245.961 88.4089 247.191 87.5915 248.227 86.5593C249.264 85.5271 250.086 84.3003 250.647 82.9494C251.209 81.5985 251.498 80.15 251.498 78.6872C251.498 77.2244 251.209 75.7759 250.647 74.425C250.086 73.0741 249.264 71.8473 248.227 70.8151C247.191 69.7828 245.961 68.9654 244.607 68.4098C243.254 67.8542 241.805 67.5713 240.342 67.5773V67.5773Z" fill="#B86A4B"/>
<path d="M177.219 77.4841C177.219 77.4841 175.238 38.4223 189.107 29.9306C189.107 29.9306 194.203 23.4203 208.638 38.7053C223.074 53.9904 237.105 45.7984 237.105 45.7984C237.105 45.7984 240.624 72.106 238.359 77.4841C238.359 77.4841 258.739 42.6681 236.378 24.8355C214.016 7.00299 201.845 13.2302 184.012 24.8355C184.012 24.8355 150.612 28.7983 177.219 77.4841Z" fill="#200100"/>
<path d="M204.828 70.2312C203.882 71.6943 203.152 73.2863 202.661 74.958C202.119 76.6478 201.833 78.4092 201.813 80.1836C201.813 81.1555 201.978 82.1203 202.298 83.0377C202.492 83.5971 202.824 84.0982 203.264 84.4944C203.704 84.8906 204.237 85.1689 204.813 85.3032C205.829 85.4352 206.859 85.2034 207.721 84.649C208.491 84.199 209.186 83.6321 209.782 82.9686C208.353 83.5461 206.798 83.7364 205.272 83.5203C204.438 83.1712 204.153 81.7155 204.17 80.1549C204.184 78.5393 204.28 76.9255 204.459 75.3198C204.615 73.6635 204.786 71.9876 204.828 70.2312Z" fill="#200100"/>
<path d="M181.191 58.8669C181.191 58.8669 191.847 54.4457 197.412 64.5838Z" fill="#200100"/>
<path d="M212.748 65.0947C212.748 65.0947 217.22 54.4589 228.304 57.7576Z" fill="#200100"/>
<path d="M191.949 75.6098C190.62 75.6098 189.543 73.994 189.543 72.0008C189.543 70.0076 190.62 68.3918 191.949 68.3918C193.278 68.3918 194.355 70.0076 194.355 72.0008C194.355 73.994 193.278 75.6098 191.949 75.6098Z" fill="#200100"/>
<path d="M219.406 74.6191C218.078 74.6191 217.001 73.0033 217.001 71.0102C217.001 69.017 218.078 67.4012 219.406 67.4012C220.735 67.4012 221.813 69.017 221.813 71.0102C221.813 73.0033 220.735 74.6191 219.406 74.6191Z" fill="#200100"/>
<path d="M166.333 80.7985C167.528 79.7083 168.856 78.7744 170.286 78.0193C170.895 77.7473 171.56 77.6271 172.225 77.6692C172.979 77.6588 173.8 77.8615 174.825 77.9687C174.388 77.0359 173.625 76.2951 172.68 75.8864C172.165 75.6496 171.606 75.5231 171.04 75.515C170.473 75.5069 169.911 75.6173 169.39 75.8392C168.401 76.2706 167.577 77.0078 167.039 77.9423C166.511 78.7972 166.264 79.7961 166.333 80.7985V80.7985Z" fill="#200100"/>
<path d="M247.947 80.7987C248.016 79.7962 247.769 78.7973 247.241 77.9423C246.703 77.0078 245.879 76.2706 244.891 75.8392C244.369 75.6173 243.807 75.5069 243.241 75.515C242.674 75.5231 242.116 75.6496 241.601 75.8864C240.655 76.2951 239.892 77.0359 239.455 77.9687C240.481 77.8616 241.301 77.6589 242.055 77.6692C242.72 77.6271 243.386 77.7472 243.994 78.0193C245.424 78.7745 246.753 79.7084 247.947 80.7987V80.7987Z" fill="#200100"/>
<path d="M190.531 111.688C192.424 113.937 194.774 115.757 197.426 117.025C200.113 118.35 203.048 119.097 206.042 119.218C209.043 119.355 212.037 118.812 214.798 117.628C216.162 117.07 217.465 116.374 218.687 115.551C219.864 114.699 220.982 113.766 222.031 112.76C220.667 113.303 219.444 114.016 218.135 114.533C216.851 115.068 215.535 115.521 214.194 115.888C211.583 116.663 208.86 116.992 206.139 116.863C200.577 116.513 195.2 114.73 190.531 111.688Z" fill="#200100"/>
<path d="M196.421 92.9805C196.421 92.9805 202.981 107.841 216.143 95.528Z" fill="#200100"/>
<path d="M91.0827 378.794L82.1268 431.152C81.6465 433.959 81.7509 436.836 82.4333 439.601C83.1157 442.366 84.3615 444.961 86.0926 447.223L104.053 470.686C104.531 471.311 105.147 471.818 105.853 472.167C106.559 472.515 107.336 472.697 108.123 472.697V472.697C109.482 472.697 110.786 472.157 111.747 471.195C112.708 470.234 113.249 468.93 113.249 467.571V467.571C113.249 464.885 112.353 462.277 110.702 460.158L96.9264 442.471C96.9264 442.471 98.74 418.29 99.143 421.917L106.284 433.56C106.613 434.097 107.072 434.541 107.619 434.852C108.167 435.163 108.784 435.331 109.413 435.339C110.042 435.348 110.664 435.197 111.219 434.9C111.774 434.604 112.245 434.172 112.589 433.644V433.644C113.029 432.988 113.247 432.209 113.211 431.42C113.033 428.508 112.211 425.672 110.805 423.115L108.815 419.499C108.815 419.499 113.249 392.497 107.606 378.794L91.0827 378.794Z" fill="#B86A4B"/>
<path d="M210.059 181.377L204.062 201.579L269.53 287.594C279.692 301.235 298.822 300.58 307.332 283.424C307.332 283.424 307.977 270.916 306.272 267.236C298.609 250.692 290.256 248.63 277.001 237.514L210.059 181.377Z" fill="#8C4D3E"/>
<path d="M207.699 183.735L201.702 203.938L267.17 289.952C277.332 303.593 296.462 302.939 304.971 285.782C304.971 285.782 305.617 273.275 303.912 269.595C296.249 253.05 287.896 250.989 274.641 239.872L207.699 183.735Z" fill="#8C4D3E"/>
<path d="M358.712 236.579C358.712 236.579 359.167 227.501 373.305 213.288C387.443 199.075 400.084 189.396 392.668 201.426L386.865 210.5C386.865 210.5 401.961 204.852 410.659 200.699C412.949 199.561 415.544 199.189 418.061 199.637C420.578 200.084 422.885 201.329 424.642 203.186C427.859 206.739 427.715 210.58 418.646 217.29C405.083 227.326 384.077 242.601 380.003 244.099C378.592 244.617 358.712 236.579 358.712 236.579Z" fill="#B86A4B"/>
<path d="M274.308 345.161L137.875 345.161L136.743 322.517L117.495 400.64L81.8296 394.979C91.6305 279.818 114.393 205.31 126.317 172.729C128.467 166.863 131.81 161.508 136.136 157C140.461 152.493 145.675 148.933 151.447 146.544L180.333 134.567C180.333 134.567 204.676 192.311 232.416 134.567L261.302 146.544C272.973 151.383 288.081 160.542 292.424 172.407C297.822 187.158 307.947 219.528 315.6 234.499C316.103 235.481 316.815 236.341 317.686 237.019C318.557 237.696 319.566 238.174 320.642 238.419C321.718 238.664 322.834 238.67 323.913 238.436C324.991 238.203 326.005 237.735 326.883 237.067L369.776 211.476L386.285 243.345L331.624 288.747C324.376 293.734 315.46 295.676 306.795 294.154C298.13 292.632 290.409 287.767 285.296 280.608L276.006 267.604L274.874 345.161L138.441 345.161" fill="#4285F4"/>
<path d="M378.023 214.639C379.627 214.285 381.183 213.74 382.657 213.016C384.141 212.323 385.551 211.479 386.863 210.5C386.031 210.573 385.211 210.743 384.419 211.007C383.635 211.252 382.87 211.552 382.129 211.907C380.629 212.601 379.244 213.523 378.023 214.639V214.639Z" fill="#160B07"/>
<path d="M398.814 212.104C400.728 211.485 402.603 210.752 404.43 209.911C406.271 209.101 408.056 208.176 409.813 207.197C411.572 206.216 413.272 205.131 414.904 203.949C416.558 202.788 418.079 201.449 419.442 199.957C416.116 202.217 412.684 204.174 409.21 206.128C405.752 208.105 402.247 209.997 398.814 212.104Z" fill="#160B07"/>
<path d="M406.949 220.301C408.744 219.875 410.503 219.31 412.211 218.61C413.926 217.931 415.599 217.151 417.223 216.276C420.512 214.568 423.489 212.317 426.026 209.616C424.468 210.611 422.95 211.604 421.384 212.527C419.803 213.425 418.243 214.345 416.638 215.197L406.949 220.301Z" fill="#160B07"/>
<path d="M402.49 216.777C404.62 216.21 406.71 215.501 408.745 214.654C410.792 213.828 412.788 212.88 414.722 211.816C416.675 210.764 418.529 209.539 420.264 208.156C422.063 206.832 423.556 205.137 424.642 203.186C423.207 204.82 421.543 206.239 419.702 207.397C417.895 208.584 416.045 209.714 414.128 210.742C410.329 212.857 406.404 214.755 402.49 216.777Z" fill="#160B07"/>
<path d="M351.485 725.271L346.616 753.646L311.58 779.546C311.58 779.546 352.764 794.407 373.569 772.328L369.323 752.797L379.089 727.747L351.485 725.271Z" fill="#8C4D3E"/>
<path d="M481.277 725.271L481.429 753.647L516.465 779.547C516.465 779.547 475.28 794.407 454.476 772.329L458.722 752.798L453.674 727.747L481.277 725.271Z" fill="#8C4D3E"/>
<path d="M417.713 311.465L434.874 342.189C446.737 363.427 454.694 386.62 458.369 410.667L505.854 732.904L331.138 727.747L321.229 422.104C320.059 394.848 325.147 367.686 336.104 342.702C340.967 331.389 347.484 320.862 355.441 311.465L417.713 311.465Z" fill="#DF382B"/>
<path d="M436.258 104.562C435.972 108.56 434.444 108.658 433.512 113.116C432.165 119.548 435.021 120.897 433.663 126.047C432.891 128.976 431.885 128.851 426.746 136.143C421.445 143.666 422.604 143.674 419.82 146.684C414.912 151.99 412.687 150.48 407.121 156.202C403.435 159.992 403.855 161.226 399.789 164.951C397.084 167.191 394.206 169.212 391.181 170.996C380.721 177.96 380.085 178.638 377.622 179.158C373.808 179.807 369.895 179.531 366.211 178.353C362.075 177.3 361.96 176.398 355.01 173.739C347.881 171.011 347.457 171.751 344.843 169.942C340.9 167.212 341.735 165.439 337.016 161.293C332.556 157.375 331.308 158.517 328.682 155.308C325.332 151.215 327.019 148.936 323.558 145.384C320.934 142.692 319.37 143.392 316.541 140.321C314.926 138.266 313.626 135.983 312.683 133.546C308.88 126.3 307.218 127.093 304.927 121.779C303.699 118.931 304.487 119.424 302.061 110.569C300.135 103.538 299.777 103.733 299.594 101.451C299.04 94.5394 302.439 94.1575 301.211 89.1519C300.466 86.1132 298.401 82.9399 299.576 78.6552L299.577 78.654C300.69 70.6618 301.505 64.8065 305.901 59.3904C308.279 56.4609 308.71 57.3487 315.916 50.2567C320.481 45.7641 321.447 44.2869 324.565 42.4294C328.637 40.0031 329.354 41.1139 334.458 38.6425C341.075 35.4383 340.901 33.071 346.215 31.3319C349.717 30.186 349.75 31.2273 356.493 30.2284C365.047 28.9614 365.343 27.2337 369.641 27.6598C374.242 28.1162 374.756 30.181 381.414 32.1331C386.976 33.7638 387.839 32.1461 392.083 33.7519C396.397 35.3844 396.001 36.9181 401.302 39.7185C407.584 43.0371 409.405 41.5525 412.34 44.4275C415.268 47.2967 413.793 49.107 417.008 54.787C419.635 59.4285 420.921 58.7515 425.25 64.7819C427.711 68.3561 429.862 72.1335 431.68 76.0731C433.465 78.988 434.749 82.1817 435.477 85.5212C435.943 89.4732 434.605 89.9031 434.819 94.8679C435.042 100.057 436.545 100.541 436.258 104.562Z" fill="#200100"/>
<path d="M405.728 122.245C405.684 122.244 405.643 122.257 405.599 122.257C404.811 99.5992 390.462 81.4099 372.408 80.999C354.354 80.588 339.191 98.1055 337.374 120.703C337.33 120.702 337.29 120.687 337.246 120.686C334.518 120.919 331.972 122.152 330.098 124.147C328.224 126.143 327.152 128.76 327.09 131.497C327.028 134.234 327.979 136.898 329.76 138.976C331.542 141.055 334.029 142.402 336.743 142.759C337.818 142.768 338.885 142.583 339.894 142.212C343.654 153.468 351.035 162.275 360.234 166.205L360.2 166.208L359.92 194.25L361.151 214.805L389.369 212.757L388.785 194.907L386.561 163.728L386.486 163.735C393.678 158.843 399.143 151.807 402.103 143.628C403.093 144.044 404.151 144.278 405.225 144.318C407.953 144.085 410.499 142.852 412.373 140.857C414.247 138.861 415.319 136.244 415.381 133.507C415.443 130.77 414.492 128.106 412.71 126.028C410.929 123.949 408.442 122.602 405.728 122.245L405.728 122.245Z" fill="#8C4D3E"/>
<path d="M472.657 404.881L477.65 441.972C477.909 443.98 477.714 446.021 477.077 447.944C476.441 449.867 475.381 451.622 473.974 453.079L459.169 468.795C458.752 469.222 458.247 469.555 457.689 469.769C457.131 469.984 456.534 470.075 455.937 470.036C454.932 470.031 453.969 469.628 453.26 468.914C452.55 468.201 452.153 467.236 452.153 466.23V466.23C452.266 464.317 453.066 462.508 454.404 461.136L465.749 449.299C465.749 449.299 465.245 432.265 464.797 434.792L458.824 442.664C458.523 443.031 458.14 443.323 457.707 443.517C457.274 443.711 456.802 443.802 456.327 443.782C455.853 443.763 455.389 443.634 454.974 443.404C454.558 443.175 454.201 442.853 453.931 442.463V442.463C453.617 441.997 453.476 441.436 453.531 440.877C453.786 438.821 454.532 436.858 455.707 435.152L457.385 432.697C457.385 432.697 454.954 413.576 459.841 404.199L472.657 404.881Z" fill="#8C4D3E"/>
<path d="M464.746 282.424L474.854 422.422L457.71 414.706L435.863 295.061L464.746 282.424Z" fill="#8C4D3E"/>
<path d="M467.157 304.814L461.438 230.11C460.959 223.872 459.004 217.837 455.736 212.502C452.467 207.167 447.977 202.686 442.637 199.426C436.374 195.587 429.584 192.687 422.48 190.816C411.466 188.204 400.182 186.896 388.862 186.921C388.862 186.921 376.974 219.755 359.99 186.921L336.556 194.817C329.82 197.086 323.624 200.718 318.352 205.487C313.081 210.255 308.847 216.057 305.915 222.532L280.591 264.197L300.768 288.915L334.829 265.3L355.462 311.465L417.734 311.465L431.489 264.197L436.5 304.814L467.157 304.814Z" fill="#34A853"/>
<path d="M746.112 104.673C736.528 104.673 728.758 96.903 728.758 87.3184C728.758 77.7338 736.528 69.9639 746.112 69.9639C755.697 69.9639 763.467 77.7338 763.467 87.3184C763.467 96.903 755.697 104.673 746.112 104.673Z" fill="#200100"/>
<path d="M824.431 108.21C814.846 108.21 807.076 100.44 807.076 90.8559C807.076 81.2713 814.846 73.5014 824.431 73.5014C834.015 73.5014 841.785 81.2713 841.785 90.8559C841.785 100.44 834.015 108.21 824.431 108.21Z" fill="#200100"/>
<path d="M747.951 127.755C747.995 127.753 748.036 127.764 748.08 127.763C748.126 105.092 761.873 86.443 779.904 85.4421C797.935 84.4411 813.662 101.454 816.218 123.98C816.262 123.977 816.301 123.961 816.345 123.959C819.079 124.102 821.664 125.251 823.602 127.184C825.541 129.117 826.697 131.698 826.849 134.432C827.001 137.165 826.137 139.859 824.424 141.994C822.712 144.13 820.27 145.558 817.569 146.003C816.495 146.047 815.422 145.897 814.402 145.559C812.987 159.541 809.5 168.239 795.047 174.539L796.088 198.224L795.529 218.808L767.26 217.685L766.225 199.188L768.312 174.131C756.65 171.173 752.507 154.08 752.273 149.008C751.296 149.457 750.247 149.725 749.175 149.8C746.441 149.656 743.856 148.507 741.918 146.574C739.979 144.641 738.823 142.06 738.671 139.327C738.519 136.593 739.383 133.9 741.096 131.764C742.808 129.629 745.25 128.201 747.951 127.755L747.951 127.755Z" fill="#B86A4B"/>
<path d="M791.571 176.668C788.12 176.664 784.907 176.858 781.696 176.775C780.095 176.744 778.52 176.602 776.927 176.423C775.299 176.171 773.686 175.83 772.095 175.403C773.314 176.674 774.818 177.637 776.483 178.21C778.147 178.768 779.884 179.079 781.638 179.132C783.37 179.155 785.098 178.967 786.785 178.574C788.474 178.207 790.092 177.563 791.571 176.668V176.668Z" fill="#200100"/>
<path d="M784.944 130.238C785.083 131.989 785.347 133.653 785.595 135.298C785.863 136.891 786.048 138.497 786.151 140.11C786.255 141.667 786.051 143.135 785.238 143.531C783.726 143.831 782.163 143.728 780.704 143.231C781.336 143.86 782.062 144.387 782.855 144.794C783.746 145.299 784.787 145.473 785.795 145.286C786.363 145.12 786.88 144.812 787.297 144.392C787.714 143.972 788.018 143.453 788.18 142.884C788.449 141.95 788.56 140.978 788.506 140.007C788.388 138.237 788.005 136.495 787.37 134.838C786.787 133.196 785.97 131.646 784.944 130.238V130.238Z" fill="#200100"/>
<path d="M809.317 119.734C809.317 119.734 800.748 112.008 792.118 119.707Z" fill="#200100"/>
<path d="M777.517 120.4C777.517 120.4 769.769 111.852 760.408 118.643Z" fill="#200100"/>
<path d="M794.312 151.02C794.312 151.02 786.687 167.171 772.326 153.273Z" fill="#200100"/>
<path d="M795.498 131.424C795.388 129.434 796.374 127.761 797.701 127.687C799.027 127.613 800.192 129.167 800.303 131.157C800.413 133.147 799.427 134.82 798.101 134.894C796.774 134.968 795.609 133.414 795.498 131.424Z" fill="#200100"/>
<path d="M768.029 131.957C767.919 129.966 768.905 128.293 770.232 128.22C771.558 128.146 772.723 129.7 772.834 131.69C772.944 133.68 771.958 135.353 770.632 135.427C769.305 135.5 768.14 133.947 768.029 131.957Z" fill="#200100"/>
<path d="M742.346 140.824C743.479 139.669 744.753 138.663 746.139 137.83C746.731 137.524 747.389 137.368 748.056 137.373C748.808 137.321 749.638 137.477 750.668 137.528C750.18 136.62 749.377 135.923 748.411 135.567C747.883 135.359 747.319 135.264 746.752 135.287C746.186 135.311 745.631 135.453 745.123 135.703C744.16 136.188 743.378 136.97 742.892 137.933C742.413 138.816 742.222 139.827 742.346 140.824V140.824Z" fill="#200100"/>
<path d="M823.834 136.301C823.848 135.296 823.546 134.312 822.971 133.488C822.382 132.585 821.519 131.894 820.508 131.517C819.975 131.325 819.408 131.246 818.842 131.285C818.277 131.325 817.726 131.482 817.225 131.747C816.304 132.208 815.584 132.989 815.199 133.944C816.217 133.781 817.025 133.534 817.778 133.502C818.44 133.423 819.111 133.506 819.733 133.744C821.203 134.419 822.581 135.278 823.834 136.301Z" fill="#200100"/>
<path d="M806.758 106.061C796.508 106.204 798.156 98.5855 796.856 92.3866C796.856 92.3866 790.762 106.452 778.655 93.397C775.898 90.4243 777.444 112.862 763.317 97.2032C761.13 94.7786 759.337 101.549 756.559 106.941C754.892 110.176 752.871 112.914 750.196 112.873L750.412 132.935C750.412 132.935 721.652 83.924 783.663 73.9614C790.347 73.035 797.157 74.0338 803.293 76.8406C834.03 92.6686 824.101 122.745 812.753 135.838C812.753 135.838 818.301 105.899 806.758 106.061Z" fill="#200100"/>
<path d="M786.215 76.1585L791.149 69.2934C791.149 69.2934 802.913 70.5539 796.084 66.2554C789.254 61.9569 787.958 65.4308 788.029 66.7025L786.215 76.1585Z" fill="#200100"/>
<path d="M683.089 409.508L678.096 446.599C677.837 448.607 678.033 450.648 678.669 452.571C679.305 454.494 680.366 456.249 681.772 457.706L696.577 473.422C696.995 473.849 697.499 474.182 698.057 474.396C698.615 474.611 699.213 474.702 699.809 474.663V474.663C700.815 474.658 701.778 474.254 702.487 473.541C703.196 472.828 703.594 471.863 703.594 470.857V470.857C703.48 468.944 702.681 467.135 701.342 465.763L689.998 453.926C689.998 453.926 690.502 436.892 690.95 439.419L696.923 447.291C697.224 447.658 697.606 447.95 698.039 448.144C698.473 448.338 698.945 448.429 699.419 448.409C699.894 448.39 700.357 448.26 700.773 448.031C701.189 447.802 701.546 447.48 701.816 447.09C702.13 446.623 702.271 446.063 702.216 445.504C701.961 443.448 701.214 441.484 700.039 439.779L698.362 437.324C698.362 437.324 700.792 418.203 695.905 408.826L683.089 409.508Z" fill="#B86A4B"/>
<path d="M691.001 287.05L680.893 427.05L698.037 419.334L719.884 299.686L691.001 287.05Z" fill="#B86A4B"/>
<path d="M733.604 342.677L735.861 343.359L735.52 344.487L733.263 343.806L733.604 342.677Z" fill="#200100"/>
<path d="M725.454 377.699L726.173 375.327L723.916 374.645L723.197 377.018L725.454 377.699ZM726.892 372.957L727.61 370.586L725.353 369.9L724.634 372.27L726.892 372.957ZM728.331 368.211L729.05 365.839L726.793 365.157L726.074 367.529L728.331 368.211ZM729.769 363.466L730.488 361.093L728.23 360.412L727.511 362.784L729.769 363.466ZM731.206 358.721L731.925 356.348L729.668 355.666L728.949 358.039L731.206 358.721ZM732.646 353.978L733.365 351.605L731.107 350.923L730.389 353.296L732.646 353.978ZM734.083 349.233L734.802 346.86L732.545 346.178L731.826 348.551L734.083 349.233Z" fill="#200100"/>
<path d="M722.477 379.388L724.735 380.074L724.392 381.203L722.134 380.517L722.477 379.388Z" fill="#200100"/>
<path d="M688.59 309.44L694.309 234.737C694.788 228.499 696.742 222.463 700.011 217.129C703.28 211.794 707.769 207.312 713.11 204.053C719.372 200.214 726.163 197.313 733.266 195.443C744.281 192.83 755.564 191.523 766.884 191.547C766.884 191.547 778.773 224.382 795.756 191.547L819.19 199.443C825.926 201.713 832.123 205.345 837.394 210.113C842.666 214.881 846.9 220.683 849.832 227.159L875.155 268.824L875.155 317.97L820.918 269.926L800.285 316.092L738.013 316.092L724.257 268.824L719.247 309.44L688.59 309.44Z" fill="#DF382B"/>
<path d="M833.685 244.195C830.831 248.071 828.34 252.203 826.245 256.537C824.056 260.824 822.273 265.307 820.917 269.926C823.776 266.053 826.267 261.921 828.357 257.585C830.542 253.295 832.326 248.813 833.685 244.195V244.195Z" fill="#B7251D"/>
<path d="M724.258 268.823C723.398 263.099 722.1 257.448 720.375 251.923C718.752 246.365 716.699 240.943 714.236 235.703C715.09 241.43 716.388 247.081 718.119 252.606C719.746 258.161 721.799 263.583 724.258 268.823V268.823Z" fill="#B7251D"/>
<path d="M883.367 181.433L901.031 192.926L906.959 300.858C907.207 304.655 906.358 308.444 904.514 311.773C902.669 315.102 899.907 317.83 896.555 319.633C893.204 321.436 889.405 322.238 885.611 321.943C881.817 321.648 878.187 320.269 875.155 317.97V317.97C868.127 302.162 865.916 284.633 868.801 267.575L883.367 181.433Z" fill="#B86A4B"/>
<path d="M881.597 200.551C881.597 200.551 876.945 193.742 879.361 175.716C881.778 157.69 885.6 143.761 886.843 156.522L887.628 166.262C887.628 166.262 895.436 153.898 899.443 146.125C900.473 144.047 902.143 142.354 904.208 141.296C906.272 140.239 908.622 139.872 910.91 140.25C915.184 141.052 917.187 143.906 914.316 153.73C910.024 168.423 903.228 190.984 901.106 194.302C900.371 195.451 881.597 200.551 881.597 200.551Z" fill="#B86A4B"/>
<path d="M883.514 174.103C884.472 172.962 885.296 171.715 885.971 170.387C886.655 169.068 887.211 167.687 887.63 166.262C886.549 167.308 885.654 168.53 884.982 169.876C884.286 171.204 883.791 172.629 883.514 174.103V174.103Z" fill="#160B07"/>
<path d="M720.714 753.169L710.582 524.066L709.717 388.122C703.375 399.1 708.131 371.834 719.246 346.942C724.109 335.629 730.626 325.102 738.583 315.705L800.856 315.705L818.017 346.429C829.879 367.667 837.837 390.86 841.511 414.907L884.991 732.426L888.551 753.169L923.587 779.069C923.587 779.069 882.402 793.929 861.597 771.851L865.843 752.32L773.753 392.131L770.388 392.131L743.421 752.32L747.667 771.851C726.863 793.929 685.678 779.069 685.678 779.069L720.714 753.169Z" fill="#B86A4B"/>
<path d="M672.092 793.505C672.092 793.505 718.372 794.373 729.411 783.961L729.411 793.522L749.791 793.522C749.791 793.522 756.194 759.438 745.35 761.186C734.506 762.934 695.905 792.405 695.038 772.15L679.895 779.945C677.544 781.155 675.573 782.988 674.197 785.245C672.82 787.501 672.092 790.093 672.092 792.736L672.092 793.505Z" fill="#DF382B"/>
<path d="M800.599 315.705L817.76 346.429C829.623 367.667 837.58 390.86 841.255 414.907L857.947 524.012L707.687 524.066L704.115 426.344C702.945 399.088 708.033 371.926 718.99 346.942C723.853 335.629 730.37 325.102 738.327 315.705L800.599 315.705Z" fill="#4285F4"/>
<path d="M937.174 793.505C937.174 793.505 890.894 794.373 879.855 783.961L879.855 793.522L859.475 793.522C859.475 793.522 853.072 759.438 863.916 761.186C874.76 762.934 913.361 792.405 914.228 772.15L929.371 779.945C931.721 781.154 933.693 782.988 935.069 785.245C936.446 787.501 937.174 790.093 937.174 792.736L937.174 793.505Z" fill="#DF382B"/>
<path d="M363.846 167.479C365.354 168.326 366.992 168.917 368.693 169.228C370.391 169.566 372.125 169.697 373.855 169.617C375.606 169.506 377.332 169.139 378.976 168.527C380.622 167.9 382.094 166.888 383.271 165.578C381.694 166.057 380.093 166.45 378.474 166.757C376.888 166.986 375.318 167.18 373.72 167.264C370.513 167.45 367.296 167.363 363.846 167.479Z" fill="#200100"/>
<path d="M368.837 125.935C367.858 127.376 367.092 128.952 366.563 130.612C365.983 132.289 365.657 134.043 365.596 135.816C365.574 136.788 365.716 137.756 366.016 138.68C366.197 139.244 366.518 139.753 366.948 140.159C367.379 140.565 367.905 140.855 368.479 141.002C369.491 141.158 370.527 140.95 371.401 140.415C372.18 139.983 372.888 139.432 373.499 138.783C372.058 139.327 370.498 139.482 368.978 139.231C368.153 138.862 367.9 137.401 367.953 135.841C368.003 134.227 368.136 132.615 368.352 131.014C368.546 129.363 368.755 127.69 368.837 125.935Z" fill="#200100"/>
<path d="M344.261 116.852C344.261 116.852 351.98 108.277 361.364 115.036Z" fill="#200100"/>
<path d="M375.795 115.264C375.795 115.264 383.851 107.005 392.957 114.134Z" fill="#200100"/>
<path d="M355.838 131.019C354.51 130.989 353.47 129.349 353.515 127.356C353.56 125.364 354.674 123.773 356.003 123.803C357.331 123.833 358.371 125.473 358.326 127.466C358.28 129.458 357.167 131.049 355.838 131.019Z" fill="#200100"/>
<path d="M383.311 130.653C381.983 130.623 380.943 128.983 380.988 126.991C381.033 124.998 382.147 123.407 383.476 123.437C384.804 123.468 385.844 125.108 385.799 127.1C385.753 129.093 384.64 130.684 383.311 130.653Z" fill="#200100"/>
<path d="M354.574 49.5816C355.042 49.5812 355.509 49.5169 355.96 49.3906C357.031 48.9657 358.004 48.327 358.819 47.5135C359.635 46.7 360.276 45.7288 360.703 44.6591C360.818 44.3694 360.813 44.0461 360.69 43.7598C360.568 43.4734 360.337 43.2474 360.048 43.1309C359.759 43.0144 359.435 43.0169 359.148 43.138C358.861 43.259 358.633 43.4887 358.515 43.7769C358.504 43.8046 357.361 46.5573 355.318 47.1217C354.696 47.2324 354.056 47.1975 353.45 47.0196C352.844 46.8418 352.287 46.5259 351.823 46.0967C351.573 45.9085 351.259 45.8273 350.949 45.8709C350.64 45.9145 350.36 46.0794 350.172 46.3293C349.984 46.5792 349.902 46.8936 349.946 47.2033C349.99 47.513 350.154 47.7928 350.404 47.9809C351.581 48.9569 353.046 49.5192 354.574 49.5816Z" fill="#560D0D"/>
<path d="M317.665 69.8824C319.577 69.7592 321.403 69.0461 322.893 67.8415C323.135 67.642 323.286 67.355 323.316 67.0435C323.345 66.7321 323.25 66.4217 323.05 66.1807C322.851 65.9397 322.564 65.7878 322.252 65.7584C321.941 65.729 321.63 65.8246 321.389 66.024C320.16 67.0491 318.582 67.5599 316.985 67.4499C316.384 67.2524 315.838 66.9179 315.388 66.473C314.939 66.028 314.599 65.4848 314.396 64.886C314.331 64.7454 314.239 64.6188 314.126 64.5137C314.012 64.4085 313.879 64.3267 313.734 64.273C313.588 64.2193 313.434 64.1948 313.279 64.2008C313.124 64.2068 312.972 64.2432 312.832 64.3079C312.691 64.3726 312.565 64.4644 312.459 64.5781C312.354 64.6917 312.272 64.825 312.219 64.9702C312.165 65.1155 312.14 65.2699 312.146 65.4246C312.152 65.5793 312.189 65.7314 312.254 65.872C312.597 66.8075 313.159 67.6475 313.893 68.3222C314.626 68.9968 315.51 69.4867 316.471 69.7511C316.863 69.8398 317.263 69.8838 317.665 69.8824V69.8824Z" fill="#560D0D"/>
<path d="M340.103 81.4417C342.014 81.3187 343.84 80.6056 345.329 79.4008C345.57 79.2011 345.721 78.9144 345.75 78.6034C345.778 78.2925 345.683 77.9828 345.484 77.7423C345.284 77.5019 344.998 77.3503 344.687 77.3209C344.376 77.2915 344.066 77.3867 343.825 77.5856C342.592 78.6026 341.018 79.1116 339.423 79.0092C338.823 78.8116 338.276 78.4772 337.827 78.0323C337.377 77.5873 337.038 77.0441 336.834 76.4454C336.703 76.1613 336.465 75.9408 336.172 75.8324C335.878 75.7239 335.554 75.7365 335.27 75.8672C334.986 75.998 334.765 76.2362 334.657 76.5295C334.549 76.8229 334.561 77.1473 334.692 77.4313C335.035 78.3671 335.597 79.2072 336.331 79.882C337.064 80.5567 337.948 81.0464 338.91 81.3105C339.301 81.3991 339.701 81.4431 340.103 81.4417V81.4417Z" fill="#560D0D"/>
<path d="M372.177 91.9201C374.088 91.797 375.914 91.084 377.403 89.8792L375.899 88.064C374.669 89.0867 373.093 89.5958 371.497 89.4853C370.896 89.2881 370.349 88.9538 369.9 88.5088C369.451 88.0638 369.111 87.5204 368.908 86.9214L366.766 87.9074C367.109 88.8432 367.671 89.6835 368.405 90.3585C369.138 91.0336 370.022 91.5239 370.983 91.7889C371.375 91.8763 371.775 91.9204 372.177 91.9201V91.9201Z" fill="#560D0D"/>
<path d="M326.938 104.555C327.454 104.556 327.967 104.478 328.46 104.325C329.52 103.871 330.475 103.206 331.268 102.37C332.062 101.534 332.676 100.546 333.074 99.4644C333.128 99.3192 333.153 99.1648 333.148 99.0099C333.142 98.8551 333.106 98.703 333.041 98.5621C332.977 98.4212 332.885 98.2945 332.772 98.189C332.658 98.0836 332.525 98.0015 332.38 97.9475C332.235 97.8935 332.08 97.8686 331.925 97.8743C331.771 97.88 331.619 97.9161 331.478 97.9806C331.337 98.0451 331.21 98.1367 331.105 98.2502C330.999 98.3637 330.917 98.4968 330.863 98.642C330.854 98.6697 329.785 101.452 327.758 102.072C327.139 102.205 326.497 102.19 325.885 102.028C325.273 101.867 324.707 101.564 324.234 101.144C324.107 101.053 323.964 100.989 323.813 100.954C323.661 100.919 323.505 100.914 323.351 100.94C323.198 100.966 323.052 101.022 322.92 101.105C322.789 101.187 322.675 101.295 322.585 101.422C322.495 101.549 322.431 101.692 322.397 101.843C322.363 101.995 322.359 102.152 322.385 102.305C322.412 102.458 322.468 102.604 322.551 102.735C322.634 102.867 322.743 102.98 322.87 103.069C324.037 103.977 325.46 104.497 326.938 104.555V104.555Z" fill="#560D0D"/>
<path d="M385.337 42.7378C385.853 42.7371 386.365 42.6595 386.857 42.5074C387.917 42.0536 388.872 41.3885 389.665 40.5528C390.459 39.7171 391.073 38.7283 391.471 37.647C391.58 37.3537 391.569 37.0292 391.438 36.7447C391.308 36.4603 391.07 36.2392 390.777 36.1301C390.484 36.0211 390.159 36.033 389.875 36.1632C389.59 36.2935 389.369 36.5314 389.26 36.8246C389.251 36.8523 388.182 39.6349 386.155 40.2546C385.536 40.3827 384.897 40.3656 384.286 40.2045C383.675 40.0434 383.11 39.7428 382.635 39.3263C382.509 39.234 382.366 39.1676 382.214 39.131C382.062 39.0945 381.905 39.0885 381.751 39.1133C381.596 39.1382 381.449 39.1934 381.316 39.2759C381.183 39.3583 381.068 39.4663 380.978 39.5935C380.887 39.7207 380.822 39.8647 380.788 40.017C380.753 40.1694 380.749 40.3271 380.776 40.4809C380.803 40.6348 380.861 40.7818 380.945 40.9134C381.029 41.045 381.138 41.1585 381.267 41.2474C382.434 42.1581 383.858 42.6794 385.337 42.7378V42.7378Z" fill="#560D0D"/>
<path d="M418.738 75.0075C419.255 75.0079 419.768 74.9303 420.261 74.7771C421.319 74.3226 422.274 73.6573 423.067 72.8216C423.86 71.986 424.474 70.9976 424.873 69.9167C424.98 69.6239 424.967 69.3005 424.836 69.0172C424.706 68.734 424.468 68.5139 424.176 68.4052C423.884 68.2965 423.56 68.308 423.276 68.4371C422.993 68.5663 422.771 68.8025 422.661 69.0943C422.652 69.122 421.583 71.9046 419.558 72.5243C418.939 72.6548 418.298 72.6388 417.686 72.4776C417.074 72.3165 416.509 72.0145 416.034 71.596C415.908 71.5063 415.765 71.4424 415.614 71.408C415.462 71.3735 415.306 71.3692 415.153 71.3953C415 71.4213 414.854 71.4772 414.723 71.5598C414.592 71.6424 414.478 71.75 414.389 71.8765C414.299 72.003 414.235 72.1459 414.201 72.2971C414.167 72.4482 414.162 72.6047 414.188 72.7575C414.215 72.9103 414.271 73.0564 414.353 73.1875C414.436 73.3187 414.544 73.4322 414.67 73.5217C415.838 74.4296 417.26 74.9491 418.738 75.0075V75.0075Z" fill="#560D0D"/>
<path d="M422.157 108.132C422.673 108.133 423.186 108.055 423.68 107.902C424.738 107.448 425.693 106.782 426.486 105.947C427.278 105.111 427.893 104.123 428.291 103.042C428.4 102.748 428.388 102.424 428.258 102.139C428.128 101.855 427.89 101.634 427.597 101.525C427.303 101.416 426.979 101.428 426.694 101.558C426.41 101.688 426.189 101.926 426.08 102.219C426.07 102.247 425.002 105.03 422.977 105.649C422.358 105.781 421.716 105.765 421.104 105.604C420.492 105.443 419.927 105.14 419.452 104.721C419.326 104.631 419.183 104.568 419.032 104.533C418.881 104.499 418.725 104.495 418.572 104.521C418.419 104.547 418.273 104.603 418.142 104.685C418.011 104.768 417.897 104.876 417.808 105.002C417.718 105.128 417.654 105.271 417.62 105.422C417.586 105.573 417.582 105.73 417.608 105.883C417.634 106.035 417.69 106.181 417.772 106.313C417.855 106.444 417.962 106.557 418.089 106.647C419.256 107.555 420.679 108.074 422.157 108.132Z" fill="#560D0D"/>
<path d="M391.472 66.904C393.591 66.721 395.574 65.7815 397.058 64.2572C397.275 64.0321 397.394 63.7299 397.388 63.4172C397.383 63.1044 397.253 62.8067 397.028 62.5895C396.803 62.3723 396.501 62.2535 396.188 62.2591C395.875 62.2647 395.578 62.3943 395.36 62.6194C394.241 63.7575 392.738 64.4376 391.145 64.5267C390.525 64.3979 389.944 64.1266 389.448 63.7344C388.951 63.3422 388.553 62.8398 388.284 62.267C388.122 61.9999 387.86 61.8081 387.557 61.7336C387.253 61.6592 386.933 61.7082 386.665 61.8699C386.398 62.0317 386.206 62.2929 386.131 62.5963C386.056 62.8996 386.105 63.2203 386.266 63.4879C386.712 64.3791 387.365 65.151 388.169 65.7396C388.974 66.3281 389.907 66.7162 390.892 66.8718C391.084 66.8927 391.278 66.9034 391.472 66.904V66.904Z" fill="#560D0D"/>
<path d="M411.757 135.124C411.849 134.123 411.625 133.118 411.116 132.251C410.599 131.305 409.792 130.55 408.814 130.095C408.298 129.861 407.739 129.738 407.172 129.733C406.605 129.729 406.044 129.843 405.524 130.068C404.569 130.455 403.79 131.178 403.332 132.1C404.359 132.016 405.184 131.833 405.938 131.861C406.604 131.834 407.266 131.969 407.868 132.255C409.281 133.042 410.587 134.007 411.757 135.124V135.124Z" fill="#200100"/>
<path d="M339.839 108.302C339.839 108.302 351.182 105.5 354.434 86.9948C354.434 86.9948 355.426 109.741 402.997 107.443L403.437 127.502L414.456 111.935C414.456 111.935 403.45 70.0872 365.966 74.3404C359.96 75.1914 354.263 77.5327 349.394 81.1507C343.415 85.4696 338.405 90.9909 334.686 97.3603C330.967 103.73 328.621 110.806 327.798 118.136L327.303 122.159C327.303 122.159 335.421 109.155 341.225 132.441L339.839 108.302Z" fill="#200100"/>
<path d="M401.443 90.9713C403.355 90.8482 405.181 90.1351 406.67 88.9303C406.91 88.7307 407.061 88.4439 407.09 88.1329C407.119 87.822 407.023 87.5123 406.824 87.2719C406.625 87.0314 406.338 86.8798 406.027 86.8505C405.716 86.8211 405.406 86.9163 405.166 87.1152C403.94 88.1461 402.36 88.657 400.764 88.5387C400.162 88.3416 399.615 88.0074 399.166 87.5624C398.716 87.1174 398.376 86.5739 398.172 85.9749C398.041 85.6908 397.803 85.4703 397.51 85.3619C397.216 85.2535 396.892 85.266 396.608 85.3968C396.324 85.5275 396.103 85.7658 395.995 86.0591C395.887 86.3524 395.899 86.6768 396.03 86.9609C396.374 87.8967 396.936 88.737 397.67 89.4117C398.404 90.0864 399.288 90.5761 400.25 90.84C400.641 90.9286 401.042 90.9727 401.443 90.9713V90.9713Z" fill="#560D0D"/>
<path d="M368.692 90.2272C370.603 90.1041 372.429 89.391 373.918 88.1862C374.158 87.9863 374.308 87.6998 374.336 87.3893C374.365 87.0787 374.269 86.7696 374.07 86.5295C373.871 86.2894 373.585 86.1379 373.275 86.1082C372.964 86.0786 372.655 86.1731 372.414 86.3711C371.181 87.3871 369.607 87.896 368.012 87.7947C367.411 87.5971 366.865 87.2627 366.415 86.8177C365.966 86.3728 365.626 85.8295 365.423 85.2308C365.292 84.9467 365.054 84.7262 364.761 84.6178C364.467 84.5094 364.143 84.5219 363.859 84.6527C363.575 84.7834 363.354 85.0217 363.246 85.315C363.137 85.6083 363.15 85.9327 363.281 86.2168C363.624 87.1525 364.186 87.9927 364.919 88.6674C365.653 89.3422 366.537 89.8319 367.498 90.0959C367.89 90.1846 368.29 90.2286 368.692 90.2272Z" fill="#560D0D"/>
<path d="M316.351 127.532C318.263 127.409 320.09 126.696 321.58 125.491C321.82 125.292 321.971 125.005 321.999 124.694C322.028 124.383 321.933 124.074 321.734 123.833C321.535 123.593 321.248 123.441 320.938 123.411C320.627 123.381 320.317 123.476 320.076 123.674C318.844 124.695 317.268 125.206 315.672 125.1C315.071 124.902 314.524 124.568 314.075 124.123C313.626 123.678 313.286 123.135 313.082 122.536C312.952 122.252 312.713 122.031 312.42 121.923C312.127 121.815 311.802 121.827 311.518 121.958C311.234 122.089 311.014 122.327 310.905 122.62C310.797 122.914 310.809 123.238 310.94 123.522C311.284 124.457 311.846 125.297 312.579 125.972C313.313 126.647 314.197 127.137 315.158 127.401C315.549 127.49 315.95 127.534 316.351 127.532Z" fill="#560D0D"/>
<path d="M330.232 133.267C331.451 132.204 332.801 131.301 334.248 130.579C334.862 130.321 335.53 130.216 336.194 130.274C336.948 130.279 337.763 130.501 338.786 130.631C338.37 129.688 337.625 128.93 336.689 128.5C336.179 128.252 335.624 128.113 335.058 128.092C334.491 128.071 333.927 128.169 333.401 128.379C332.403 128.788 331.562 129.506 331.003 130.428C330.455 131.271 330.186 132.263 330.232 133.267V133.267Z" fill="#200100"/>
<path d="M332.452 121.935C333.004 115.827 334.111 109.781 335.757 103.873C337.303 98.0627 339.692 92.5102 342.848 87.3925C345.871 82.4268 350.216 78.4005 355.397 75.7643C360.626 73.3181 366.424 72.3449 372.165 72.9494C378.007 73.4771 383.674 75.2183 388.805 78.0617C393.935 80.9051 398.416 84.7881 401.96 89.4622C405.561 94.2217 408.091 99.7039 409.375 105.533C410.644 111.504 411.009 117.632 410.458 123.711C411.987 117.637 412.392 111.334 411.653 105.113C410.843 98.7457 408.552 92.6563 404.964 87.3338C401.315 81.9488 396.515 77.4429 390.91 74.1424C385.305 70.842 379.035 68.8297 372.557 68.2514C369.29 68.0064 366.005 68.153 362.772 68.6879C359.494 69.2014 356.323 70.2496 353.384 71.7908C347.586 74.9279 342.831 79.6931 339.708 85.499C336.672 91.0691 334.579 97.1028 333.512 103.356C332.399 109.482 332.043 115.722 332.452 121.935V121.935Z" fill="#23893C"/>
<path d="M355.401 144.844C354.484 144.812 353.615 144.426 352.977 143.766C352.34 143.105 351.983 142.224 351.983 141.306C351.983 140.388 352.34 139.506 352.977 138.846C353.615 138.186 354.484 137.799 355.401 137.768C356.318 137.799 357.187 138.186 357.825 138.846C358.462 139.506 358.819 140.388 358.819 141.306C358.819 142.224 358.462 143.105 357.825 143.766C357.187 144.426 356.318 144.812 355.401 144.844V144.844Z" fill="#602922"/>
<path d="M385.123 142.58C384.206 142.548 383.337 142.161 382.7 141.501C382.062 140.841 381.706 139.959 381.706 139.041C381.706 138.124 382.062 137.242 382.7 136.582C383.337 135.922 384.206 135.535 385.123 135.503C386.04 135.535 386.909 135.922 387.547 136.582C388.185 137.242 388.541 138.124 388.541 139.041C388.541 139.959 388.185 140.841 387.547 141.501C386.909 142.161 386.04 142.548 385.123 142.58V142.58Z" fill="#602922"/>
<path d="M297.993 793.982C297.993 793.982 344.273 794.85 355.312 784.438L355.312 794L375.692 794C375.692 794 382.094 759.916 371.251 761.664C360.407 763.412 321.806 792.883 320.939 772.628L305.795 780.422C303.445 781.632 301.474 783.466 300.098 785.722C298.721 787.979 297.993 790.571 297.993 793.214L297.993 793.982Z" fill="#FABB05"/>
<path d="M530.052 793.982C530.052 793.982 483.773 794.85 472.733 784.439L472.733 794L452.353 794C452.353 794 445.951 759.916 456.794 761.664C467.638 763.412 506.239 792.883 507.106 772.628L522.25 780.422C524.6 781.632 526.571 783.466 527.948 785.722C529.324 787.979 530.052 790.571 530.052 793.214L530.052 793.982Z" fill="#FABB05"/>
<path d="M351.134 342.955C351.387 342.956 351.633 342.874 351.837 342.724C352.04 342.573 352.189 342.361 352.263 342.119L353.29 338.733C353.337 338.584 353.354 338.428 353.339 338.273C353.325 338.118 353.28 337.967 353.208 337.829C353.135 337.692 353.036 337.57 352.915 337.471C352.795 337.371 352.657 337.297 352.508 337.252C352.359 337.206 352.202 337.191 352.047 337.207C351.892 337.222 351.742 337.268 351.605 337.342C351.468 337.416 351.346 337.516 351.248 337.637C351.15 337.758 351.077 337.897 351.033 338.047L350.006 341.433C349.952 341.609 349.94 341.796 349.971 341.977C350.003 342.159 350.076 342.331 350.186 342.479C350.296 342.627 350.439 342.747 350.603 342.83C350.768 342.913 350.95 342.956 351.134 342.955L351.134 342.955Z" fill="#B7251D"/>
<path d="M343.602 367.813C343.855 367.813 344.101 367.732 344.304 367.581C344.508 367.431 344.657 367.219 344.73 366.977L346.615 360.762C346.703 360.463 346.669 360.142 346.522 359.868C346.374 359.594 346.124 359.39 345.826 359.299C345.529 359.209 345.207 359.24 344.932 359.385C344.657 359.53 344.45 359.778 344.357 360.075L342.473 366.29C342.419 366.467 342.408 366.653 342.439 366.835C342.47 367.016 342.544 367.188 342.654 367.336C342.763 367.484 342.906 367.604 343.071 367.687C343.236 367.77 343.417 367.813 343.602 367.813L343.602 367.813ZM347.368 355.385C347.621 355.386 347.867 355.304 348.071 355.154C348.274 355.003 348.423 354.791 348.497 354.549L350.381 348.334C350.469 348.036 350.436 347.715 350.288 347.441C350.14 347.167 349.89 346.962 349.593 346.872C349.295 346.781 348.974 346.812 348.698 346.957C348.423 347.103 348.217 347.351 348.124 347.648L346.239 353.863C346.186 354.039 346.174 354.226 346.205 354.407C346.237 354.589 346.31 354.761 346.42 354.909C346.53 355.057 346.673 355.177 346.837 355.26C347.002 355.343 347.184 355.386 347.368 355.385L347.368 355.385Z" fill="#B7251D"/>
<path d="M340.692 377.411C340.946 377.412 341.192 377.33 341.395 377.179C341.599 377.028 341.748 376.816 341.821 376.573L342.846 373.187C342.892 373.038 342.909 372.882 342.894 372.727C342.88 372.572 342.835 372.421 342.762 372.284C342.689 372.146 342.59 372.024 342.469 371.925C342.349 371.826 342.21 371.752 342.061 371.707C341.912 371.662 341.756 371.647 341.601 371.663C341.446 371.679 341.296 371.725 341.159 371.799C341.022 371.873 340.901 371.974 340.803 372.095C340.705 372.216 340.632 372.356 340.589 372.505L339.564 375.891C339.519 376.039 339.504 376.195 339.519 376.349C339.534 376.503 339.58 376.653 339.653 376.789C339.726 376.926 339.826 377.046 339.945 377.144C340.065 377.242 340.203 377.316 340.351 377.361C340.462 377.394 340.577 377.412 340.692 377.411V377.411Z" fill="#B7251D"/>
<path d="M322.061 239.569C323.421 244.186 325.204 248.669 327.389 252.958C329.479 257.295 331.97 261.426 334.829 265.299C333.473 260.68 331.69 256.197 329.501 251.91C327.406 247.576 324.915 243.445 322.061 239.569V239.569Z" fill="#23893C"/>
<path d="M431.489 264.197C433.948 258.956 436 253.534 437.628 247.979C439.358 242.454 440.656 236.803 441.511 231.077C439.047 236.316 436.995 241.739 435.372 247.296C433.647 252.822 432.349 258.472 431.489 264.197V264.197Z" fill="#23893C"/>
<path d="M359.608 150.511C359.608 150.511 366.168 165.371 379.33 153.058Z" fill="#200100"/>
<path d="M141.837 345.161L141.837 734.647L193.919 734.647L200.712 394.979L214.299 394.979L240.34 734.647L292.423 734.647L269.778 345.161L141.837 345.161Z" fill="#FABB05"/>
<path d="M276.006 203.633C275.519 208.964 275.291 214.295 275.103 219.626C274.887 224.956 274.857 230.288 274.827 235.618C274.854 240.949 274.885 246.28 275.099 251.611L275.428 259.607C275.624 262.272 275.738 264.939 276.006 267.604C276.273 264.939 276.388 262.272 276.584 259.607L276.913 251.611C277.127 246.28 277.158 240.949 277.185 235.618C277.155 230.288 277.125 224.957 276.909 219.626C276.72 214.295 276.492 208.964 276.006 203.633Z" fill="#2C66BF"/>
<path d="M137.875 206.464C137.294 216.129 136.972 225.798 136.689 235.467C136.4 245.138 136.323 254.809 136.131 264.479C136.129 274.15 136.025 283.822 136.118 293.494L136.306 308.004C136.455 312.842 136.522 317.679 136.742 322.516C137.057 317.684 137.219 312.85 137.462 308.016L137.933 293.513C138.215 283.843 138.3 274.172 138.486 264.501C138.482 254.83 138.594 245.158 138.495 235.486C138.4 225.812 138.267 216.14 137.875 206.464Z" fill="#2C66BF"/>
<path d="M251.663 748.234C251.663 748.234 237.51 787.861 249.399 793.523L261.287 793.523C261.287 793.523 266.948 777.671 274.874 793.523L347.336 793.523C347.336 793.523 351.865 781.068 334.316 775.407C316.766 769.746 287.328 748.234 287.328 748.234L251.663 748.234Z" fill="#34A853"/>
<path d="M249.399 734.647L251.663 748.234L287.328 748.234L287.328 734.647L249.399 734.647Z" fill="#B86A4B"/>
<path d="M185.162 748.234C185.162 748.234 199.315 787.862 187.426 793.523L175.538 793.523C175.538 793.523 169.877 777.672 161.951 793.523L89.4887 793.523C89.4887 793.523 84.9598 781.068 102.509 775.407C120.059 769.746 149.497 748.234 149.497 748.234L185.162 748.234Z" fill="#34A853"/>
<path d="M187.426 734.647L185.161 748.234L149.496 748.234L149.496 734.647L187.426 734.647Z" fill="#B86A4B"/>
<path d="M217.578 394.009C213.791 393.177 209.92 392.781 206.043 392.83C202.166 392.776 198.295 393.172 194.508 394.009C198.295 394.846 202.166 395.242 206.043 395.188C209.92 395.237 213.791 394.841 217.578 394.009V394.009Z" fill="#EDA606"/>
<path d="M282.95 261.839L276.006 268.734L275.629 293.451C275.629 293.451 296.432 304.803 303.126 286.557L282.95 261.839Z" fill="#8C4D3E"/>
<path d="M406.449 160.284L416.218 160.284L416.218 139.334L406.449 139.334L406.449 160.284ZM414.449 158.515L408.218 158.515L408.218 141.103L414.449 141.103L414.449 158.515Z" fill="#FABB05"/>
<path d="M326.417 159.107L336.189 159.107L336.189 138.156L326.417 138.156L326.417 159.107ZM334.42 157.338L328.186 157.338L328.186 139.926L334.42 139.926L334.42 157.338Z" fill="#FABB05"/>
<path d="M334.427 139.896L334.427 137.429L328.487 137.429C329.828 139.727 331.928 141.485 334.427 142.4L334.427 139.896Z" fill="#8C4D3E"/>
<path d="M408.163 143.894L408.163 139.286L413.763 139.286C412.495 141.432 410.513 143.063 408.163 143.894V143.894Z" fill="#8C4D3E"/>
<path d="M805.405 192.615L802.402 199.911C801.69 201.633 801.437 203.51 801.67 205.358C801.902 207.207 802.61 208.964 803.726 210.456C804.188 211.089 804.727 211.663 805.33 212.164C806.203 212.926 807.194 213.54 808.266 213.979L818.87 218.344C819.242 218.502 819.626 218.629 820.019 218.724C820.723 218.951 821.454 219.079 822.193 219.106C824.455 219.283 826.715 218.736 828.646 217.546C830.578 216.355 832.081 214.581 832.938 212.481L835.942 205.185C836.593 203.599 836.588 201.819 835.929 200.237C835.269 198.654 834.008 197.398 832.423 196.744L813.846 189.097C812.26 188.446 810.481 188.45 808.898 189.11C807.315 189.77 806.059 191.03 805.405 192.615V192.615Z" fill="#FED4C0"/>
<path d="M803.727 210.456C804.189 211.089 804.728 211.663 805.331 212.164L811.254 198.286C811.362 198.023 811.361 197.729 811.253 197.466C811.145 197.204 810.938 196.994 810.677 196.884C810.415 196.773 810.121 196.77 809.857 196.875C809.593 196.981 809.382 197.185 809.269 197.446L803.727 210.456Z" fill="#200100"/>
<path d="M808.905 214.242L810.898 215.062L816.997 200.813C817.105 200.549 817.104 200.252 816.994 199.989C816.884 199.725 816.674 199.516 816.41 199.406C816.281 199.351 816.143 199.322 816.003 199.32C815.862 199.319 815.723 199.345 815.593 199.398C815.463 199.451 815.345 199.528 815.245 199.627C815.145 199.726 815.066 199.843 815.012 199.972L808.905 214.242Z" fill="#200100"/>
<path d="M814.766 216.654L816.759 217.475L822.698 203.556C822.755 203.427 822.786 203.288 822.788 203.148C822.791 203.007 822.765 202.867 822.712 202.737C822.659 202.606 822.58 202.487 822.481 202.388C822.381 202.288 822.262 202.21 822.132 202.157L822.112 202.149C821.851 202.045 821.56 202.046 821.299 202.151C821.038 202.257 820.829 202.459 820.713 202.715L814.766 216.654Z" fill="#200100"/>
<path d="M820.02 218.724C820.723 218.951 821.455 219.079 822.194 219.105L828.297 204.789C828.41 204.526 828.415 204.23 828.31 203.964C828.206 203.698 828 203.485 827.739 203.37C827.608 203.31 827.466 203.277 827.322 203.274C827.178 203.27 827.034 203.297 826.901 203.351C826.767 203.405 826.646 203.486 826.545 203.589C826.444 203.691 826.364 203.813 826.312 203.948L820.02 218.724Z" fill="#200100"/>
<path d="M319.739 202.487L322.793 209.762C323.511 211.481 324.663 212.984 326.137 214.123C327.612 215.263 329.357 215.999 331.201 216.261C331.977 216.38 332.763 216.402 333.544 216.328C334.7 216.248 335.834 215.977 336.901 215.528L347.475 211.089C347.849 210.937 348.21 210.754 348.554 210.543C349.212 210.204 349.819 209.776 350.358 209.271C352.079 207.792 353.286 205.805 353.804 203.596C354.322 201.387 354.125 199.07 353.241 196.98L350.187 189.706C349.522 188.125 348.258 186.874 346.67 186.225C345.083 185.576 343.304 185.584 341.722 186.246L323.199 194.022C321.618 194.687 320.366 195.952 319.718 197.539C319.069 199.126 319.077 200.906 319.739 202.487V202.487Z" fill="#FED4C0"/>
<path d="M331.201 216.261C331.976 216.38 332.763 216.402 333.544 216.328L327.883 202.341C327.772 202.08 327.564 201.872 327.301 201.764C327.039 201.656 326.745 201.655 326.482 201.762C326.22 201.87 326.01 202.076 325.899 202.337C325.787 202.598 325.783 202.892 325.887 203.156L331.201 216.261Z" fill="#200100"/>
<path d="M337.537 215.261L339.525 214.426L333.725 200.053C333.614 199.79 333.403 199.582 333.139 199.474C332.874 199.366 332.578 199.367 332.314 199.476C332.184 199.529 332.066 199.606 331.966 199.705C331.866 199.803 331.787 199.92 331.732 200.05C331.678 200.179 331.65 200.318 331.649 200.458C331.649 200.598 331.676 200.737 331.729 200.867L337.537 215.261Z" fill="#200100"/>
<path d="M343.381 212.808L345.368 211.973L339.69 197.946C339.64 197.815 339.563 197.695 339.465 197.594C339.366 197.493 339.249 197.413 339.119 197.359C338.989 197.304 338.85 197.276 338.709 197.276C338.568 197.277 338.429 197.306 338.3 197.361L338.28 197.37C338.022 197.481 337.817 197.688 337.708 197.947C337.599 198.206 337.594 198.498 337.694 198.76L343.381 212.808Z" fill="#200100"/>
<path d="M348.554 210.543C349.211 210.204 349.818 209.776 350.358 209.271L344.513 194.846C344.407 194.581 344.201 194.369 343.938 194.255C343.676 194.142 343.38 194.137 343.114 194.241C342.979 194.292 342.855 194.369 342.752 194.469C342.648 194.569 342.565 194.689 342.509 194.822C342.453 194.955 342.425 195.098 342.427 195.242C342.428 195.386 342.459 195.529 342.517 195.66L348.554 210.543Z" fill="#200100"/>
<path d="M141.067 151.239L144.12 158.514C144.838 160.233 145.991 161.736 147.465 162.875C148.939 164.015 150.684 164.751 152.529 165.013C153.304 165.132 154.091 165.154 154.872 165.081C156.027 165 157.161 164.729 158.229 164.28L168.802 159.841C169.176 159.689 169.537 159.506 169.882 159.295C170.539 158.956 171.146 158.528 171.686 158.023C173.407 156.544 174.613 154.557 175.131 152.348C175.65 150.139 175.452 147.822 174.568 145.732L171.515 138.458C170.85 136.878 169.585 135.626 167.998 134.977C166.411 134.328 164.631 134.336 163.05 134.998L144.526 142.774C142.946 143.439 141.694 144.704 141.045 146.291C140.396 147.878 140.404 149.658 141.067 151.239V151.239Z" fill="#8C4D3E"/>
<path d="M152.529 165.013C153.304 165.132 154.091 165.155 154.871 165.081L149.21 151.093C149.1 150.832 148.891 150.625 148.629 150.516C148.367 150.408 148.072 150.407 147.81 150.515C147.547 150.622 147.338 150.828 147.226 151.089C147.115 151.35 147.111 151.644 147.215 151.908L152.529 165.013Z" fill="#200100"/>
<path d="M158.865 164.013L160.852 163.178L155.053 148.805C154.941 148.542 154.731 148.334 154.466 148.226C154.202 148.118 153.905 148.119 153.642 148.228C153.512 148.281 153.393 148.358 153.293 148.457C153.193 148.555 153.114 148.672 153.059 148.802C153.005 148.931 152.977 149.07 152.976 149.21C152.976 149.35 153.003 149.489 153.057 149.619L158.865 164.013Z" fill="#200100"/>
<path d="M164.708 161.56L166.696 160.726L161.018 146.698C160.967 146.567 160.89 146.447 160.792 146.346C160.694 146.246 160.576 146.165 160.447 146.111C160.317 146.056 160.177 146.028 160.037 146.029C159.896 146.029 159.756 146.058 159.627 146.113L159.607 146.122C159.349 146.233 159.144 146.44 159.035 146.7C158.926 146.959 158.921 147.25 159.022 147.512L164.708 161.56Z" fill="#200100"/>
<path d="M169.881 159.295C170.538 158.956 171.146 158.528 171.685 158.023L165.841 143.599C165.735 143.333 165.528 143.121 165.266 143.007C165.004 142.894 164.707 142.889 164.441 142.993C164.306 143.044 164.183 143.121 164.079 143.221C163.975 143.321 163.893 143.441 163.837 143.574C163.781 143.707 163.753 143.85 163.754 143.994C163.756 144.138 163.786 144.281 163.845 144.412L169.881 159.295Z" fill="#200100"/>
<path d="M408.254 183.902L405.416 191.263C404.742 193 404.532 194.883 404.806 196.726C405.079 198.569 405.827 200.309 406.976 201.775C407.453 202.398 408.005 202.96 408.619 203.448C409.508 204.19 410.514 204.781 411.595 205.196L422.294 209.321C422.67 209.47 423.057 209.588 423.452 209.675C424.16 209.886 424.894 209.998 425.634 210.007C427.899 210.133 430.146 209.536 432.05 208.302C433.954 207.068 435.417 205.261 436.227 203.142L439.065 195.781C439.68 194.18 439.636 192.401 438.941 190.834C438.246 189.267 436.957 188.039 435.358 187.421L416.613 180.195C415.013 179.579 413.234 179.624 411.666 180.319C410.099 181.014 408.872 182.303 408.254 183.902V183.902Z" fill="#B86A4B"/>
<path d="M406.977 201.776C407.453 202.398 408.005 202.96 408.619 203.448L414.227 189.439C414.329 189.174 414.323 188.88 414.209 188.62C414.095 188.36 413.883 188.155 413.619 188.05C413.355 187.946 413.061 187.949 412.799 188.06C412.538 188.172 412.331 188.381 412.224 188.644L406.977 201.776Z" fill="#200100"/>
<path d="M412.238 205.444L414.249 206.219L420.025 191.837C420.127 191.57 420.119 191.273 420.004 191.012C419.888 190.751 419.673 190.547 419.407 190.443C419.277 190.391 419.138 190.365 418.998 190.367C418.857 190.368 418.719 190.398 418.59 190.453C418.461 190.509 418.345 190.589 418.247 190.69C418.15 190.791 418.073 190.91 418.022 191.041L412.238 205.444Z" fill="#200100"/>
<path d="M418.151 207.724L420.162 208.499L425.786 194.45C425.84 194.32 425.868 194.181 425.867 194.04C425.866 193.899 425.837 193.76 425.781 193.631C425.725 193.501 425.644 193.385 425.542 193.287C425.44 193.19 425.32 193.114 425.188 193.065L425.168 193.057C424.905 192.959 424.614 192.966 424.355 193.077C424.097 193.189 423.892 193.395 423.783 193.654L418.151 207.724Z" fill="#200100"/>
<path d="M423.451 209.675C424.159 209.886 424.893 209.998 425.632 210.007L431.411 195.557C431.519 195.292 431.517 194.996 431.407 194.732C431.296 194.469 431.086 194.26 430.822 194.151C430.689 194.094 430.547 194.064 430.403 194.064C430.258 194.064 430.116 194.094 429.983 194.151C429.851 194.208 429.732 194.291 429.633 194.396C429.534 194.501 429.458 194.625 429.408 194.761L423.451 209.675Z" fill="#200100"/>
<path d="M1019 793.522L-7.62939e-06 793.523" stroke="#020202" stroke-miterlimit="10"/>
</svg>
