<svg width="30" height="30" viewBox="0 0 30 30" fill="none" xmlns="http://www.w3.org/2000/svg">
<path d="M18.75 5.31249V24.6825C18.75 26.0312 17.1575 26.7462 16.15 25.85L10.535 20.8575C10.3634 20.7052 10.1419 20.6212 9.9125 20.6212H5.3125C4.94316 20.6212 4.57743 20.5485 4.2362 20.4071C3.89497 20.2658 3.58493 20.0586 3.32376 19.7975C3.0626 19.5363 2.85543 19.2263 2.71409 18.885C2.57275 18.5438 2.5 18.1781 2.5 17.8087V12.1862C2.50033 11.4405 2.79679 10.7255 3.3242 10.1983C3.85161 9.67113 4.5668 9.37499 5.3125 9.37499H9.9125C10.1421 9.37471 10.3636 9.2902 10.535 9.13749L16.1487 4.14624C17.1575 3.24999 18.75 3.96499 18.75 5.31249ZM23.74 7.37249C23.9398 7.22449 24.1901 7.16189 24.436 7.19846C24.6819 7.23503 24.9032 7.36777 25.0513 7.56749C26.6455 9.71769 27.5042 12.3245 27.5 15.0012C27.5035 17.6777 26.6443 20.284 25.05 22.4337C24.9004 22.6292 24.68 22.7581 24.4362 22.7924C24.1925 22.8268 23.945 22.7639 23.7472 22.6173C23.5495 22.4707 23.4173 22.2523 23.3792 22.0091C23.3411 21.7659 23.4002 21.5175 23.5437 21.3175C24.8988 19.4907 25.6286 17.2757 25.625 15.0012C25.6289 12.7263 24.899 10.5109 23.5437 8.68374C23.4703 8.58471 23.4172 8.47219 23.3873 8.3526C23.3574 8.233 23.3515 8.1087 23.3697 7.98679C23.3879 7.86488 23.43 7.74776 23.4935 7.64214C23.5571 7.53651 23.6408 7.44446 23.74 7.37124V7.37249ZM21.4287 10.4625C21.537 10.4038 21.6558 10.367 21.7782 10.3542C21.9007 10.3414 22.0245 10.3528 22.1426 10.3879C22.2606 10.4229 22.3706 10.4809 22.4663 10.5585C22.5619 10.636 22.6413 10.7317 22.7 10.84C23.37 12.0775 23.75 13.4962 23.75 15.0012C23.7521 16.4537 23.3911 17.8837 22.7 19.1612C22.6414 19.2696 22.562 19.3653 22.4664 19.443C22.3708 19.5206 22.2609 19.5787 22.1428 19.6139C22.0248 19.6491 21.901 19.6606 21.7784 19.648C21.6559 19.6353 21.5371 19.5986 21.4287 19.54C21.3204 19.4814 21.2247 19.402 21.147 19.3064C21.0693 19.2108 21.0113 19.1009 20.9761 18.9828C20.9409 18.8648 20.9293 18.7409 20.942 18.6184C20.9547 18.4959 20.9914 18.3771 21.05 18.2687C21.5928 17.2653 21.8764 16.1421 21.875 15.0012C21.875 13.8162 21.575 12.7037 21.05 11.7325C20.9319 11.5138 20.9055 11.2572 20.9765 11.0191C21.0475 10.781 21.2102 10.5807 21.4287 10.4625V10.4625Z" fill="#666666"/>
</svg>
